<?xml version="1.0" encoding="utf-8"?>
<!-- Generator: Adobe Illustrator 16.0.0, SVG Export Plug-In . SVG Version: 6.00 Build 0)  -->
<!DOCTYPE svg PUBLIC "-//W3C//DTD SVG 1.1//EN" "http://www.w3.org/Graphics/SVG/1.1/DTD/svg11.dtd">
<svg version="1.1" id="Layer_1" xmlns="http://www.w3.org/2000/svg" xmlns:xlink="http://www.w3.org/1999/xlink" x="0px" y="0px"
	 width="114.317px" height="45.22px" viewBox="0 0 114.317 45.22" enable-background="new 0 0 114.317 45.22" xml:space="preserve">
<path fill="#ECE70E" d="M0.935,16.306c0,0-1.007,7.234,6.521,6.985c0,0,8.194-0.416,8.944-4.75c0,0,2.591-0.16,3.347-2.482
	c0,0-0.811,4.679,3.32,5.107c0,0,0.827,0.283,2.074-0.536c0,0,1.759,2.433,6.926,0.964c0,0,1.583-0.696,1.667-1.916
	c0,0,2.319-0.298,3.043-1.265c0.021-0.028-0.812,0.074-0.793,0.044c0.647-1.036-0.191,4.022,4.487,3.136
	c0,0-7.904,8.864-4.821,13.447c1.274,1.893,8.705-2.27,9.333-9.83c0,0,7.833-6.087,6.25-11.254S49.4,12.036,49.4,12.036
	s-2.605,10.441-6.417,8.339s-0.733-3.333-0.733-3.333s-5.267,2.417-5.267,0.083s-0.768-1.228-0.768-1.228L31.9,17.375
	c0,0-2.206,4-5.228,3.083c0,0-3.397-2.157-2.376-2.995s-3.753,5.287-3.557-2.338c0,0-6.172,3.561-5.172-2.678
	c0,0-1.672,9.948-8.503,8.854c0,0-4.959,1.208-5.247-5.748L0.935,16.306z"/>
<path fill="#ECE70E" d="M63.637,35.843c0,0,1.012,14.031,13.037,7.412c0,0,5.322-3.133,0.112-10.297c0,0-2.553,0.044-2.849,1.589
	c0,0,2.479,7.129-2.588,6.906C71.35,41.453,65.708,43.104,63.637,35.843z"/>
<path fill="#ECE70E" d="M106.411,33.002l5.907,4.289c0,0-3.561,8.865-9.583,5.423h-0.25c0,0-6.967,5.91-10.775-0.423
	c0,0-2.726,2.75-3.809-1.333c0,0-1.57,1.591-2.18,0.083c0,0,0.306,4.179-4.611,4.179c0,0-3.09,0-3.054-3.315
	c0.01-0.896,3.304,3.636,6.429-4.78c0,0,2.765,2.917,5.007-0.583c0,0-1.882,2.444,0.701,4.041c0,0,2.156-1.683,3.042-2.624
	c0,0-0.111,8.666,6.194,2.833l1.139-1.68C100.567,39.111,105.004,37.963,106.411,33.002z"/>
<path fill="#ECE70E" d="M107.846,9.208l6.471,8.702c0,0-7.282,14.056-20.104,6.229c0,0-3.939,4.12-5.964-3.089
	c0,0-8.555,6.569-12.181,0.116c0,0-4.056,5.061-6.76,0.452c0,0-1.931,2.521-4.765-1.296c0,0-4.099,2.291-5.516-2.411
	c0,0,0.374,3.839-8.001,3.923s-0.333-0.083-0.333-0.083s-2.252,3.207-4.042,0.083c0,0,3.042-0.583,4.167-2.375
	c0,0,7.544-2.774,8.501-5.158s-1.501,5.741,2.749,3.783l3.208-2.125c0,0-0.421,1.292,0.415,3c0,0,0.441,2.409,2.752-0.625
	l1.667,0.292c0,0,1.875,4.5,3.708,0.125l1.667-4.625c0,0,1.917,4.458,5,2.708c0,0,6.042-0.792,6.667-7.625l2.833,1.308
	c0,0-2.834,12.58-0.917,8.49c0,0-0.541,6.577,3.917,3.452l1.625-1c0,0,2.624,0.006,2.624-2.452
	C97.233,19.005,106.456,17.249,107.846,9.208z"/>
<path stroke="#000000" stroke-width="0.25" d="M14.759,14.793c-0.072,0.486-0.145,0.887-0.216,1.202
	c-0.072,0.315-0.198,0.707-0.378,1.175c-0.036,0.108-0.072,0.207-0.108,0.297c-0.036,0.09-0.072,0.18-0.108,0.27
	c-0.108,0.252-0.239,0.5-0.392,0.742c-0.153,0.243-0.311,0.473-0.473,0.688c-0.162,0.216-0.306,0.405-0.432,0.567
	c-0.126,0.162-0.207,0.27-0.243,0.324c-0.036,0.054-0.122,0.153-0.256,0.297c-0.135,0.144-0.284,0.288-0.446,0.432
	s-0.32,0.279-0.473,0.405c-0.153,0.125-0.266,0.207-0.337,0.243c-0.108,0.072-0.216,0.135-0.324,0.189
	c-0.108,0.054-0.216,0.117-0.324,0.189s-0.266,0.144-0.473,0.216c-0.207,0.072-0.428,0.139-0.661,0.203
	c-0.234,0.062-0.464,0.117-0.688,0.162c-0.226,0.045-0.401,0.068-0.527,0.068c-0.18,0.018-0.36,0.036-0.54,0.054
	c-0.18,0.018-0.369,0.027-0.567,0.027c-0.288,0-0.634-0.041-1.04-0.121c-0.405-0.081-0.733-0.194-0.985-0.338
	c-0.27-0.126-0.477-0.225-0.621-0.297c-0.144-0.072-0.369-0.207-0.675-0.405c-0.036-0.037-0.086-0.077-0.148-0.122
	c-0.063-0.045-0.194-0.148-0.392-0.311c-0.036-0.018-0.104-0.077-0.203-0.175c-0.099-0.099-0.203-0.203-0.311-0.311
	c-0.108-0.108-0.211-0.216-0.311-0.324s-0.167-0.18-0.202-0.216c-0.09-0.09-0.148-0.18-0.176-0.27
	c-0.027-0.09-0.077-0.18-0.148-0.27c-0.108-0.162-0.193-0.324-0.256-0.486c-0.063-0.162-0.122-0.314-0.176-0.459
	c-0.108-0.414-0.171-0.76-0.189-1.039s-0.027-0.644-0.027-1.094c0-0.036,0.004-0.108,0.014-0.216
	c0.009-0.108,0.058-0.351,0.148-0.729c0.036-0.144,0.085-0.288,0.148-0.432c0.063-0.144,0.122-0.288,0.175-0.432
	c0.018-0.09,0.072-0.229,0.162-0.418c0.09-0.189,0.171-0.355,0.243-0.5c0.036-0.036,0.081-0.094,0.135-0.175
	c0.054-0.081,0.207-0.238,0.459-0.473c0.252-0.144,0.459-0.292,0.621-0.445s0.369-0.301,0.621-0.446
	c0.036-0.018,0.072-0.031,0.108-0.041c0.036-0.009,0.072-0.022,0.108-0.041c0.126-0.036,0.252-0.067,0.378-0.094
	s0.315-0.058,0.567-0.095c0.036-0.09,0.076-0.243,0.121-0.459c0.045-0.216,0.085-0.369,0.122-0.459c0-0.018,0.018-0.09,0.054-0.216
	c0.036-0.126,0.076-0.274,0.122-0.445c0.044-0.171,0.09-0.333,0.135-0.486c0.045-0.153,0.077-0.265,0.095-0.337
	C5.489,9.312,5.521,9.214,5.565,9.07S5.642,8.809,5.66,8.719c0.09-0.342,0.171-0.616,0.243-0.824c0.072-0.207,0.14-0.4,0.203-0.581
	c0.063-0.18,0.126-0.359,0.189-0.54c0.063-0.18,0.148-0.414,0.257-0.702C6.623,5.911,6.686,5.767,6.74,5.641
	c0.054-0.125,0.152-0.279,0.297-0.459C7.145,5.038,7.249,4.894,7.348,4.75c0.099-0.144,0.265-0.261,0.5-0.351
	c0.324-0.108,0.567-0.054,0.729,0.162C8.612,4.615,8.644,4.709,8.67,4.844c0.027,0.135-0.004,0.248-0.094,0.337
	c-0.09,0.09-0.158,0.167-0.203,0.229C8.329,5.475,8.27,5.542,8.198,5.614C8.036,5.866,7.905,6.086,7.807,6.275
	C7.708,6.464,7.622,6.649,7.55,6.829c-0.072,0.18-0.14,0.365-0.203,0.554C7.284,7.571,7.217,7.801,7.145,8.071
	C7.091,8.287,7.046,8.462,7.01,8.597C6.974,8.732,6.933,8.863,6.889,8.989c-0.045,0.126-0.09,0.266-0.135,0.418
	C6.708,9.561,6.65,9.763,6.578,10.015c-0.018,0.072-0.05,0.189-0.095,0.351s-0.09,0.329-0.135,0.5
	c-0.045,0.171-0.081,0.342-0.108,0.513C6.213,11.549,6.2,11.671,6.2,11.743c0.018,0.018,0.036,0.027,0.054,0.027
	s0.045,0.009,0.081,0.027c0.036,0,0.085,0.009,0.148,0.027c0.063,0.018,0.211,0.054,0.446,0.108
	c0.144,0.054,0.342,0.162,0.594,0.324c0.252,0.162,0.423,0.288,0.513,0.378c0.09,0.054,0.162,0.108,0.216,0.162
	c0.054,0.054,0.126,0.117,0.216,0.189c0.108,0.126,0.202,0.248,0.283,0.364c0.081,0.117,0.167,0.266,0.257,0.446
	c0.018,0.054,0.076,0.225,0.175,0.513c0.099,0.288,0.139,0.585,0.122,0.891c-0.037,0.324-0.122,0.648-0.257,0.972
	c-0.135,0.324-0.319,0.657-0.553,0.999c-0.216,0.252-0.482,0.455-0.796,0.607c-0.315,0.153-0.653,0.229-1.013,0.229
	c-0.09,0-0.171-0.009-0.243-0.027c-0.072-0.018-0.135-0.036-0.189-0.054C6.2,17.89,6.065,17.809,5.849,17.683
	c-0.216-0.125-0.351-0.216-0.405-0.27l-0.351-0.351c-0.289-0.27-0.496-0.603-0.621-0.999c-0.054-0.144-0.077-0.297-0.067-0.459
	c0.009-0.162,0.004-0.341-0.014-0.54c-0.018-0.036-0.027-0.117-0.027-0.243s0.004-0.248,0.013-0.365
	c0.009-0.117,0.018-0.22,0.027-0.311c0.009-0.09,0.013-0.125,0.013-0.108c0-0.144,0.022-0.306,0.067-0.486
	c0.045-0.18,0.085-0.342,0.122-0.486c-0.018,0.018-0.036,0.027-0.054,0.027c-0.018,0-0.045,0.009-0.081,0.027
	c-0.09,0.036-0.203,0.081-0.337,0.135C4,13.309,3.896,13.372,3.824,13.444c-0.09,0.09-0.212,0.193-0.365,0.311
	s-0.329,0.301-0.526,0.553c-0.072,0.054-0.145,0.158-0.216,0.311c-0.072,0.153-0.145,0.32-0.216,0.5
	c-0.072,0.18-0.131,0.36-0.175,0.54c-0.045,0.18-0.077,0.324-0.095,0.432c0,0.18-0.004,0.364-0.013,0.553
	c-0.009,0.189-0.005,0.41,0.013,0.662c0,0.072,0.009,0.145,0.027,0.216c0.018,0.072,0.036,0.145,0.054,0.216
	c-0.036-0.072-0.036-0.063,0,0.027c0.036,0.09,0.085,0.212,0.148,0.365s0.13,0.301,0.203,0.445c0.072,0.144,0.125,0.243,0.162,0.297
	c0.252,0.414,0.576,0.792,0.972,1.134c0.396,0.341,0.828,0.603,1.296,0.783c0.306,0.144,0.589,0.252,0.85,0.324
	c0.261,0.072,0.635,0.135,1.121,0.189c0.36,0,0.702-0.036,1.026-0.108c0.324-0.072,0.666-0.153,1.026-0.243
	c0.162-0.036,0.346-0.108,0.553-0.216c0.207-0.108,0.409-0.229,0.607-0.365c0.198-0.135,0.387-0.279,0.567-0.432
	c0.18-0.153,0.324-0.292,0.432-0.418c0.072-0.072,0.149-0.158,0.229-0.256c0.081-0.099,0.176-0.221,0.284-0.365
	c0.108-0.144,0.238-0.333,0.392-0.567c0.153-0.233,0.328-0.531,0.526-0.891c0.054-0.09,0.117-0.238,0.189-0.445
	c0.072-0.207,0.189-0.625,0.351-1.255c0.018-0.09,0.036-0.176,0.054-0.256c0.018-0.081,0.036-0.167,0.054-0.257
	c0-0.198,0.022-0.387,0.067-0.567c0.045-0.18,0.041-0.369-0.013-0.567c-0.037-0.234-0.086-0.54-0.148-0.918
	c-0.063-0.378-0.176-0.72-0.338-1.026c-0.072-0.144-0.148-0.274-0.229-0.391c-0.081-0.117-0.167-0.238-0.256-0.365
	c-0.036-0.036-0.085-0.099-0.148-0.189c-0.063-0.09-0.131-0.18-0.203-0.27c-0.072-0.09-0.135-0.175-0.189-0.256
	c-0.054-0.081-0.09-0.139-0.108-0.176c-0.036-0.018-0.067-0.044-0.095-0.081c-0.027-0.036-0.059-0.054-0.094-0.054
	c-0.018,0.036-0.036,0.059-0.054,0.067c-0.018,0.009-0.045,0.032-0.081,0.067c-0.09,0.072-0.175,0.14-0.256,0.203
	c-0.081,0.063-0.175,0.122-0.283,0.176c-0.234,0.162-0.496,0.306-0.783,0.432C9.944,11.401,9.71,11.464,9.44,11.5
	c-0.036,0-0.094,0.005-0.175,0.014c-0.081,0.009-0.14,0.014-0.176,0.014c-0.144,0-0.288-0.045-0.432-0.135
	c-0.072-0.072-0.148-0.125-0.229-0.162c-0.081-0.036-0.167-0.099-0.257-0.189c-0.126-0.125-0.207-0.306-0.243-0.54
	c-0.037-0.198-0.023-0.432,0.041-0.702c0.062-0.27,0.112-0.441,0.148-0.513c0.036-0.072,0.081-0.139,0.135-0.203
	c0.054-0.062,0.108-0.13,0.162-0.202c0.108-0.108,0.234-0.198,0.378-0.27c0.126-0.054,0.243-0.104,0.351-0.148
	s0.252-0.068,0.432-0.068c0.125,0,0.252,0.005,0.378,0.014c0.125,0.009,0.288,0.032,0.486,0.067
	c0.126,0.037,0.207,0.059,0.243,0.067c0.036,0.009,0.171,0.059,0.405,0.149c0.072,0.018,0.18,0.063,0.324,0.135
	c0.018-0.018,0.044-0.063,0.081-0.135c0.09-0.09,0.18-0.22,0.27-0.392c0.09-0.171,0.162-0.328,0.216-0.473
	c0.108-0.288,0.234-0.594,0.378-0.918c0.036-0.125,0.072-0.274,0.108-0.445s0.063-0.329,0.081-0.473
	c0-0.252-0.031-0.468-0.094-0.648c-0.063-0.18-0.158-0.387-0.284-0.621c-0.036-0.09-0.099-0.171-0.189-0.243
	c-0.09-0.071-0.261-0.233-0.513-0.486c-0.036-0.036-0.077-0.076-0.121-0.122c-0.045-0.044-0.104-0.085-0.176-0.122
	c-0.036-0.018-0.117-0.062-0.243-0.135c-0.126-0.072-0.266-0.144-0.419-0.216s-0.297-0.144-0.432-0.216
	C9.939,3.112,9.845,3.058,9.791,3.021c0-0.018-0.063-0.044-0.189-0.081s-0.414-0.126-0.864-0.27C8.684,2.653,8.558,2.644,8.36,2.644
	c-0.018,0-0.081,0-0.189,0c-0.108,0-0.423,0.018-0.945,0.054c-0.126,0-0.261,0.018-0.405,0.054c-0.27,0.072-0.536,0.145-0.797,0.216
	C5.764,3.04,5.498,3.121,5.228,3.211c-0.162,0.09-0.32,0.175-0.473,0.256S4.454,3.634,4.31,3.724C4.22,3.76,4.135,3.818,4.054,3.899
	C3.973,3.98,3.887,4.066,3.797,4.156C3.779,4.192,3.752,4.219,3.716,4.237C3.68,4.255,3.626,4.295,3.554,4.358
	C3.482,4.421,3.383,4.529,3.257,4.682C3.131,4.835,2.969,5.047,2.771,5.317L2.096,6.64C2.024,6.802,1.97,6.946,1.934,7.072
	C1.898,7.198,1.844,7.36,1.772,7.558C1.664,7.864,1.583,8.21,1.529,8.597c-0.054,0.387-0.1,0.734-0.135,1.04
	c0,0.018,0,0.077,0,0.175c0,0.099,0,0.208,0,0.324c0,0.117,0,0.225,0,0.324c0,0.1,0,0.158,0,0.176c0,0.108,0.014,0.243,0.041,0.405
	c0.027,0.162,0.041,0.261,0.041,0.297s0.014,0.09,0.041,0.162c0.027,0.072,0.049,0.149,0.067,0.229
	c0.018,0.081,0.036,0.149,0.054,0.203c0.018,0.054,0.027,0.063,0.027,0.027c0.018,0.054,0.031,0.113,0.041,0.176
	c0.009,0.063-0.005,0.131-0.041,0.203c-0.018,0.036-0.054,0.104-0.108,0.202c-0.054,0.099-0.153,0.167-0.297,0.203
	c-0.18,0.054-0.351,0.036-0.513-0.054c-0.145-0.071-0.234-0.18-0.27-0.324c-0.126-0.216-0.189-0.441-0.189-0.675
	c-0.018-0.036-0.041-0.152-0.067-0.351c-0.027-0.198-0.041-0.315-0.041-0.351c-0.037-0.108-0.054-0.243-0.054-0.405
	c0-0.162,0.009-0.288,0.027-0.378C0.134,10.042,0.125,9.88,0.125,9.718s0.018-0.342,0.054-0.54c0-0.036,0.009-0.117,0.027-0.243
	c0.018-0.125,0.041-0.27,0.067-0.432c0.027-0.162,0.059-0.315,0.095-0.459C0.404,7.9,0.431,7.783,0.449,7.693
	c0.09-0.324,0.166-0.585,0.229-0.783c0.062-0.198,0.139-0.414,0.229-0.648c0.072-0.252,0.18-0.508,0.324-0.77
	C1.376,5.231,1.493,5.02,1.583,4.858c0.036-0.09,0.072-0.162,0.108-0.216c0.036-0.054,0.072-0.108,0.108-0.162
	c0.198-0.233,0.387-0.45,0.567-0.648c0.144-0.18,0.288-0.346,0.432-0.5C2.942,3.18,3.059,3.076,3.149,3.021
	c0.18-0.162,0.418-0.324,0.716-0.486c0.297-0.162,0.553-0.314,0.77-0.459C4.76,2.005,4.949,1.919,5.201,1.82
	c0.252-0.099,0.72-0.211,1.404-0.337c0.126-0.036,0.333-0.059,0.621-0.068c0.288-0.009,0.558-0.022,0.81-0.041
	c0.054,0,0.135,0,0.243,0c0.108,0,0.351,0.019,0.729,0.054c0.09,0.036,0.198,0.059,0.324,0.067c0.126,0.009,0.243,0.032,0.351,0.067
	C9.737,1.6,9.8,1.627,9.872,1.645c0.072,0.018,0.189,0.063,0.351,0.135c0.108,0.036,0.225,0.081,0.351,0.135
	c0.09,0.037,0.193,0.081,0.311,0.135c0.117,0.054,0.301,0.144,0.553,0.27c0.162,0.09,0.311,0.185,0.446,0.283
	c0.135,0.099,0.283,0.212,0.445,0.338c0.036,0.036,0.067,0.067,0.094,0.094c0.027,0.027,0.059,0.059,0.095,0.095
	c0.18,0.18,0.351,0.351,0.513,0.513c0.162,0.162,0.301,0.337,0.418,0.527c0.117,0.189,0.207,0.409,0.27,0.661
	c0.062,0.252,0.103,0.549,0.122,0.891c0,0.145,0,0.229,0,0.256c0,0.027-0.009,0.14-0.027,0.338c0,0.126-0.013,0.261-0.041,0.405
	C13.747,6.865,13.697,7,13.625,7.125c-0.054,0.199-0.104,0.374-0.148,0.527s-0.113,0.32-0.203,0.5
	c-0.036,0.072-0.081,0.162-0.135,0.27c-0.054,0.108-0.198,0.36-0.432,0.756c-0.018,0.036-0.081,0.108-0.189,0.216
	c0.09,0.09,0.171,0.167,0.243,0.229c0.072,0.063,0.144,0.14,0.216,0.229c0.09,0.09,0.175,0.198,0.256,0.324s0.203,0.306,0.365,0.54
	c0.036,0.09,0.09,0.18,0.162,0.27c0.072,0.09,0.152,0.216,0.243,0.378c0.144,0.198,0.261,0.432,0.351,0.702
	c0.09,0.27,0.171,0.522,0.243,0.756c0.036,0.108,0.067,0.283,0.094,0.526c0.027,0.243,0.049,0.5,0.068,0.77
	C14.795,14.353,14.795,14.578,14.759,14.793z M5.633,15.388c0,0.144,0.081,0.333,0.243,0.567c0.162,0.234,0.351,0.45,0.567,0.648
	c0.054,0.054,0.14,0.077,0.257,0.068c0.117-0.009,0.238-0.036,0.364-0.081s0.234-0.099,0.324-0.162
	c0.09-0.063,0.153-0.139,0.189-0.229c0.09-0.162,0.18-0.319,0.27-0.473c0.09-0.153,0.144-0.346,0.162-0.581
	c0-0.108-0.019-0.247-0.054-0.418c-0.036-0.171-0.081-0.311-0.135-0.418c-0.072-0.162-0.171-0.306-0.297-0.432
	c-0.036-0.036-0.108-0.108-0.216-0.216s-0.261-0.207-0.459-0.297c-0.018-0.018-0.059-0.041-0.122-0.067
	c-0.063-0.027-0.266-0.112-0.607-0.257c-0.054,0-0.095-0.013-0.122-0.041c-0.027-0.027-0.067-0.013-0.122,0.041
	c-0.018,0.09-0.036,0.234-0.054,0.432c-0.019,0.198-0.063,0.459-0.135,0.783c-0.018,0.144-0.032,0.252-0.041,0.324
	c-0.009,0.072-0.018,0.135-0.027,0.189c-0.009,0.054-0.014,0.126-0.014,0.216S5.615,15.208,5.633,15.388z M10.412,9.745
	c-0.018,0-0.032-0.004-0.041-0.014c-0.009-0.009-0.023-0.013-0.041-0.013h-0.027c-0.09-0.036-0.216-0.067-0.378-0.095
	C9.764,9.596,9.611,9.619,9.467,9.691C9.449,9.709,9.436,9.718,9.427,9.718c-0.009,0-0.023,0.009-0.041,0.027
	C9.35,9.781,9.305,9.826,9.251,9.88c-0.054,0.054-0.072,0.153-0.054,0.297c0.071,0.036,0.139,0.05,0.202,0.041
	c0.063-0.009,0.104-0.014,0.122-0.014c0.144-0.054,0.27-0.104,0.378-0.148s0.225-0.104,0.351-0.175
	C10.286,9.862,10.34,9.817,10.412,9.745z"/>
<path stroke="#000000" stroke-width="0.25" d="M26.659,12.251c0.018,0.072,0.018,0.185,0,0.337
	c-0.019,0.153-0.041,0.315-0.068,0.486c-0.027,0.171-0.059,0.329-0.094,0.472c-0.036,0.145-0.063,0.252-0.081,0.324
	c-0.054,0.216-0.117,0.423-0.189,0.621c-0.054,0.18-0.113,0.369-0.176,0.567c-0.063,0.198-0.121,0.378-0.175,0.54
	c-0.018,0.036-0.032,0.077-0.041,0.122c-0.009,0.045-0.023,0.085-0.041,0.122l-0.054,0.162c-0.145,0.36-0.302,0.711-0.473,1.053
	c-0.171,0.342-0.302,0.585-0.392,0.729c-0.108,0.162-0.221,0.315-0.337,0.459c-0.117,0.144-0.256,0.288-0.418,0.432
	c-0.198,0.162-0.387,0.297-0.567,0.405c-0.199,0.09-0.419,0.166-0.662,0.229c-0.243,0.063-0.482,0.095-0.716,0.095
	c-0.306-0.037-0.639-0.185-0.999-0.446c-0.36-0.261-0.612-0.643-0.756-1.147c-0.054-0.144-0.085-0.274-0.094-0.392
	c-0.009-0.117-0.032-0.229-0.068-0.337c-0.036-0.252-0.059-0.486-0.067-0.702c-0.009-0.216-0.013-0.422-0.013-0.621
	c-0.108,0.108-0.252,0.207-0.432,0.297c-0.145,0.108-0.288,0.193-0.432,0.256c-0.144,0.063-0.279,0.113-0.405,0.148
	c-0.054,0.037-0.118,0.059-0.189,0.068c-0.072,0.009-0.189,0.031-0.351,0.067c-0.037,0.018-0.068,0.027-0.095,0.027
	s-0.059,0.009-0.094,0.027c-0.09,0.037-0.167,0.05-0.229,0.041c-0.063-0.009-0.131,0.005-0.203,0.041h-0.216
	c-0.234,0.054-0.459,0.045-0.675-0.027c-0.09-0.036-0.189-0.072-0.297-0.108s-0.288-0.108-0.54-0.216
	c-0.216-0.144-0.36-0.26-0.432-0.351c-0.072-0.09-0.18-0.234-0.324-0.432c-0.09-0.144-0.158-0.292-0.203-0.445
	s-0.085-0.32-0.122-0.5c-0.018-0.072-0.032-0.149-0.041-0.229c-0.009-0.081-0.022-0.193-0.041-0.338
	c-0.018-0.108-0.032-0.193-0.041-0.256c-0.009-0.063-0.013-0.122-0.013-0.175c0-0.054,0-0.126,0-0.216
	c0-0.09,0.009-0.216,0.027-0.378c0-0.162,0.054-0.409,0.162-0.743c0.108-0.333,0.207-0.625,0.297-0.877
	c0.018-0.018,0.027-0.036,0.027-0.054s0.009-0.036,0.027-0.054c0.036-0.072,0.054-0.117,0.054-0.135
	c0.036-0.072,0.09-0.167,0.162-0.284c0.072-0.117,0.125-0.211,0.162-0.284c0.09-0.198,0.18-0.346,0.27-0.445
	c0.09-0.099,0.18-0.22,0.27-0.364c0.036-0.054,0.067-0.095,0.094-0.122c0.027-0.027,0.095-0.112,0.203-0.257
	c0.125-0.108,0.238-0.211,0.337-0.311c0.099-0.099,0.22-0.211,0.365-0.337c0.251-0.18,0.481-0.346,0.688-0.5
	c0.207-0.152,0.463-0.301,0.77-0.445c0.071-0.036,0.135-0.063,0.189-0.081c0.054-0.018,0.125-0.045,0.216-0.081
	c0.198-0.09,0.459-0.148,0.783-0.175c0.324-0.027,0.666-0.031,1.026-0.014c0.18,0.018,0.36,0.054,0.54,0.108
	c0.18,0.054,0.342,0.126,0.486,0.216c0.018,0.018,0.049,0.041,0.095,0.067c0.044,0.027,0.085,0.05,0.121,0.067
	c0.198,0.108,0.378,0.261,0.54,0.459c0.198,0.324,0.288,0.675,0.27,1.053c0,0.072-0.004,0.148-0.013,0.229
	c-0.009,0.081-0.068,0.248-0.176,0.5l-0.081,0.189c-0.108,0.27-0.279,0.513-0.513,0.729c-0.145,0.108-0.302,0.202-0.473,0.283
	c-0.171,0.081-0.374,0.122-0.607,0.122h-0.189c-0.09,0-0.18-0.009-0.27-0.027c-0.09-0.018-0.18-0.027-0.27-0.027
	c-0.145-0.018-0.284-0.041-0.418-0.068c-0.135-0.027-0.275-0.076-0.418-0.148c-0.054-0.018-0.135-0.063-0.243-0.135
	c-0.036-0.036-0.063-0.058-0.081-0.067c-0.018-0.009-0.045-0.031-0.081-0.068l-0.216-0.216c-0.09-0.072-0.148-0.148-0.175-0.229
	c-0.027-0.081-0.05-0.139-0.068-0.176c-0.018-0.09-0.009-0.189,0.027-0.297c0.036-0.108,0.125-0.207,0.27-0.297
	c0.144-0.072,0.26-0.108,0.351-0.108c0.144,0,0.261,0.018,0.351,0.054c0.108,0.072,0.18,0.126,0.216,0.162
	c0.054,0.036,0.108,0.067,0.162,0.095c0.054,0.027,0.108,0.059,0.162,0.094c0.036,0.037,0.099,0.054,0.189,0.054
	c0.072,0.018,0.198,0.045,0.378,0.081c0.072,0,0.13,0.004,0.176,0.013c0.044,0.009,0.139,0.014,0.283,0.014
	c0.036-0.018,0.077-0.041,0.122-0.067c0.045-0.027,0.085-0.058,0.122-0.095c0.036-0.054,0.072-0.122,0.108-0.203
	c0.036-0.081,0.063-0.139,0.081-0.175c0.036-0.09,0.045-0.153,0.027-0.189c-0.018-0.036-0.036-0.09-0.054-0.162
	c-0.036-0.036-0.059-0.063-0.067-0.081c-0.009-0.018-0.023-0.036-0.041-0.054c-0.054-0.054-0.145-0.117-0.27-0.189
	c-0.126-0.072-0.252-0.126-0.378-0.162c-0.09-0.018-0.185-0.031-0.284-0.041c-0.099-0.009-0.221-0.014-0.365-0.014h-0.216
	c-0.036,0-0.077,0.005-0.122,0.014c-0.045,0.009-0.085,0.014-0.122,0.014c-0.162,0.036-0.27,0.063-0.324,0.081l-0.378,0.189
	c-0.198,0.108-0.392,0.225-0.581,0.351c-0.189,0.126-0.374,0.279-0.554,0.459c-0.072,0.054-0.131,0.104-0.175,0.149
	c-0.045,0.045-0.095,0.094-0.148,0.148c-0.037,0.072-0.099,0.153-0.189,0.243c-0.037,0.037-0.059,0.063-0.068,0.081
	c-0.009,0.018-0.031,0.045-0.067,0.081c-0.09,0.072-0.162,0.145-0.216,0.216c-0.054,0.072-0.108,0.153-0.162,0.243
	c-0.036,0.036-0.104,0.153-0.203,0.351c-0.099,0.198-0.167,0.333-0.202,0.405c0.018-0.018-0.005,0.05-0.068,0.203
	c-0.063,0.153-0.094,0.248-0.094,0.284c-0.018,0.036-0.036,0.072-0.054,0.108c-0.018,0.036-0.027,0.072-0.027,0.108
	c0,0.036-0.014,0.117-0.041,0.243s-0.05,0.288-0.067,0.486c0,0.054,0,0.122,0,0.203s0.018,0.221,0.054,0.418
	c0.036,0.18,0.077,0.392,0.122,0.634c0.045,0.243,0.139,0.455,0.284,0.635c0.108,0.126,0.216,0.189,0.324,0.189
	c0.108,0,0.252,0.018,0.432,0.054c0.126,0.036,0.234,0.04,0.324,0.013c0.09-0.027,0.243-0.058,0.459-0.094
	c0.09-0.036,0.175-0.059,0.256-0.068c0.081-0.009,0.166-0.031,0.256-0.067l0.108-0.027c0.306-0.162,0.608-0.355,0.905-0.581
	s0.562-0.5,0.796-0.824c0.036-0.036,0.054-0.071,0.054-0.108c0-0.036,0.009-0.072,0.027-0.108c0.036-0.09,0.076-0.198,0.122-0.324
	c0.044-0.126,0.067-0.234,0.067-0.324c0.054-0.252,0.117-0.414,0.189-0.486c0.036-0.036,0.085-0.077,0.148-0.122
	s0.158-0.077,0.284-0.095h0.054c0.198,0,0.378,0.081,0.54,0.243c0.036,0.09,0.072,0.185,0.108,0.284c0.036,0.099,0.036,0.202,0,0.31
	c-0.019,0.054-0.045,0.118-0.081,0.189c-0.054,0.126-0.099,0.261-0.135,0.405c-0.036,0.072-0.063,0.158-0.081,0.256
	c-0.018,0.099-0.063,0.284-0.135,0.554c-0.018,0.036-0.027,0.077-0.027,0.122s-0.009,0.094-0.027,0.148l-0.054,0.216
	c-0.037,0.198-0.063,0.401-0.081,0.607c-0.018,0.208-0.027,0.392-0.027,0.554v0.216c0,0.108,0.018,0.234,0.054,0.378
	c0.036,0.145,0.063,0.289,0.081,0.432c0,0.018,0.018,0.063,0.054,0.135c0.09,0.324,0.202,0.526,0.337,0.607
	c0.135,0.081,0.238,0.131,0.311,0.148c0.288,0.036,0.513-0.004,0.675-0.122c0.162-0.117,0.288-0.211,0.378-0.284
	c0.09-0.071,0.225-0.225,0.405-0.459c0.18-0.233,0.314-0.468,0.405-0.702c0.018,0,0.027-0.018,0.027-0.054
	c0.036-0.09,0.072-0.18,0.108-0.27c0.036-0.09,0.071-0.171,0.108-0.243c0.036-0.072,0.062-0.135,0.081-0.189
	c0.125-0.396,0.288-0.904,0.486-1.525c0.198-0.621,0.369-1.282,0.513-1.984c0.018-0.144,0.085-0.256,0.202-0.337
	s0.238-0.117,0.365-0.108c0.125,0.009,0.247,0.059,0.364,0.148C26.519,11.937,26.604,12.072,26.659,12.251z"/>
<path stroke="#000000" stroke-width="0.25" d="M38.079,11.981c0.054,0.126,0.072,0.252,0.054,0.378c0,0.037-0.014,0.108-0.041,0.216
	s-0.063,0.225-0.108,0.351c-0.045,0.126-0.081,0.248-0.108,0.364c-0.027,0.117-0.041,0.185-0.041,0.203
	c-0.037,0.324-0.153,0.693-0.351,1.107c-0.198,0.414-0.387,0.747-0.567,0.999c-0.252,0.396-0.536,0.725-0.851,0.985
	c-0.315,0.261-0.526,0.428-0.635,0.5c-0.18,0.108-0.36,0.203-0.54,0.284c-0.18,0.081-0.351,0.158-0.513,0.229
	c-0.216,0.09-0.41,0.162-0.581,0.216c-0.171,0.054-0.302,0.09-0.392,0.108c-0.234,0.072-0.463,0.122-0.688,0.148
	c-0.225,0.027-0.437,0.041-0.634,0.041c-0.018,0.037-0.032,0.072-0.041,0.108c-0.009,0.036-0.023,0.072-0.041,0.108
	c-0.09,0.144-0.167,0.283-0.229,0.418c-0.063,0.135-0.131,0.274-0.203,0.418c-0.09,0.216-0.198,0.414-0.324,0.594
	c-0.037,0.09-0.086,0.167-0.149,0.229s-0.13,0.13-0.202,0.203c-0.126,0.126-0.252,0.252-0.378,0.378
	c-0.126,0.126-0.289,0.234-0.486,0.324c-0.072,0.054-0.148,0.104-0.229,0.148s-0.167,0.095-0.256,0.148
	c-0.145,0.09-0.288,0.148-0.432,0.176c-0.144,0.027-0.288,0.058-0.432,0.094c-0.036,0.018-0.077,0.027-0.121,0.027
	c-0.045,0-0.086,0.009-0.122,0.027c-0.145,0.036-0.288,0.058-0.432,0.067c-0.144,0.009-0.297,0.014-0.459,0.014h-0.351
	c-0.216-0.037-0.459-0.09-0.729-0.162c-0.27-0.072-0.513-0.18-0.729-0.324c-0.432-0.306-0.796-0.634-1.093-0.985
	c-0.297-0.351-0.455-0.842-0.473-1.472c0-0.036,0.004-0.076,0.014-0.121c0.009-0.045,0.013-0.085,0.013-0.122
	c0.018-0.27,0.049-0.585,0.095-0.945c0.044-0.36,0.099-0.724,0.162-1.093c0.062-0.369,0.135-0.72,0.216-1.053
	c0.081-0.333,0.157-0.625,0.229-0.877c0.125-0.468,0.229-0.909,0.311-1.323s0.211-0.945,0.392-1.593
	c0.018-0.072,0.076-0.311,0.175-0.715c0.099-0.405,0.211-0.851,0.337-1.336c0.126-0.486,0.243-0.945,0.351-1.377
	c0.108-0.432,0.18-0.702,0.216-0.81c0.09-0.378,0.153-0.635,0.189-0.77c0.036-0.135,0.071-0.261,0.108-0.378
	c0.036-0.117,0.09-0.292,0.162-0.527c0.071-0.233,0.189-0.63,0.351-1.188c0.126-0.414,0.301-0.765,0.527-1.053
	c0.225-0.288,0.382-0.486,0.472-0.594c0.09-0.072,0.185-0.139,0.284-0.202c0.099-0.063,0.22-0.095,0.364-0.095
	c0.162,0,0.288,0.045,0.378,0.135c0.09,0.09,0.152,0.153,0.189,0.189c0.018,0.054,0.027,0.135,0.027,0.243s-0.045,0.234-0.135,0.378
	c-0.036,0.09-0.121,0.216-0.256,0.378c-0.135,0.162-0.239,0.306-0.311,0.432C28.98,4.34,28.917,4.467,28.845,4.61
	c-0.072,0.145-0.126,0.279-0.162,0.405c-0.09,0.216-0.211,0.621-0.364,1.215c-0.153,0.594-0.315,1.233-0.486,1.917
	c-0.171,0.685-0.338,1.35-0.5,1.998c-0.162,0.648-0.289,1.116-0.378,1.404c-0.09,0.396-0.202,0.874-0.337,1.431
	c-0.135,0.558-0.256,1.071-0.364,1.539c-0.162,0.63-0.297,1.247-0.405,1.85s-0.18,1.192-0.216,1.769
	c-0.036,0.378,0.018,0.711,0.162,0.999c0.144,0.288,0.342,0.513,0.594,0.675c0.144,0.09,0.288,0.171,0.432,0.243
	c0.144,0.072,0.387,0.108,0.729,0.108c0.342,0,0.648-0.023,0.918-0.067c0.27-0.045,0.585-0.167,0.945-0.365
	c0.09-0.036,0.167-0.09,0.229-0.162s0.13-0.135,0.203-0.189c0.18-0.144,0.328-0.32,0.446-0.526c0.117-0.207,0.238-0.436,0.364-0.688
	c-0.162-0.018-0.329-0.036-0.5-0.054c-0.171-0.018-0.256-0.036-0.256-0.054c-0.037,0-0.077-0.004-0.122-0.014
	c-0.045-0.009-0.086-0.013-0.122-0.013c-0.18,0-0.36-0.045-0.54-0.135c-0.252-0.072-0.477-0.166-0.675-0.284
	c-0.198-0.117-0.415-0.283-0.648-0.5c-0.072-0.071-0.118-0.125-0.135-0.162c-0.09-0.054-0.135-0.09-0.135-0.108
	c-0.072-0.054-0.185-0.198-0.338-0.432s-0.256-0.423-0.31-0.567c-0.037-0.144-0.068-0.347-0.095-0.608
	c-0.027-0.261,0.004-0.544,0.095-0.85c0-0.036,0.009-0.081,0.027-0.135c0.018-0.054,0.036-0.099,0.054-0.135
	c0.126-0.324,0.342-0.648,0.648-0.972c0.09-0.108,0.184-0.198,0.283-0.27c0.099-0.072,0.203-0.153,0.311-0.243
	c0.09-0.054,0.185-0.103,0.284-0.148c0.099-0.044,0.193-0.094,0.283-0.148c0.18-0.072,0.355-0.112,0.527-0.122
	c0.17-0.009,0.346-0.022,0.526-0.041c0.396,0,0.77,0.072,1.121,0.216c0.351,0.144,0.657,0.347,0.918,0.607
	c0.261,0.261,0.468,0.581,0.621,0.958s0.22,0.792,0.203,1.242c-0.018,0.199-0.027,0.41-0.027,0.635s-0.054,0.553-0.162,0.985
	c0.288-0.054,0.576-0.135,0.864-0.243c0-0.018,0.076-0.05,0.229-0.095c0.152-0.045,0.328-0.104,0.526-0.175
	c0.306-0.108,0.603-0.279,0.891-0.513c0.018-0.018,0.13-0.117,0.337-0.297c0.207-0.18,0.409-0.423,0.607-0.729
	c0.144-0.198,0.252-0.409,0.324-0.635c0.071-0.225,0.144-0.454,0.216-0.688c0-0.018,0.018-0.085,0.054-0.203
	c0.036-0.117,0.076-0.233,0.121-0.351s0.081-0.229,0.108-0.338c0.027-0.108,0.04-0.17,0.04-0.189
	c0.072-0.233,0.162-0.405,0.27-0.513c0.162-0.216,0.378-0.261,0.648-0.135C37.872,11.766,37.989,11.856,38.079,11.981z
	 M30.006,16.842c0.054,0.036,0.198,0.067,0.432,0.094c0.233,0.027,0.468,0.059,0.702,0.095c0.108-0.306,0.18-0.657,0.216-1.053
	c0.036-0.396,0.036-0.738,0-1.026c-0.037-0.108-0.059-0.207-0.068-0.297c-0.009-0.09-0.031-0.162-0.067-0.216
	c-0.036-0.108-0.135-0.225-0.297-0.351c-0.234-0.198-0.491-0.351-0.77-0.459c-0.279-0.108-0.59-0.135-0.932-0.081
	c-0.288,0.108-0.522,0.27-0.702,0.486c-0.18,0.216-0.315,0.423-0.405,0.621c-0.072,0.234-0.063,0.486,0.027,0.756
	c0.036,0.036,0.063,0.085,0.081,0.148c0.018,0.063,0.045,0.113,0.081,0.148c0.018,0.036,0.041,0.077,0.067,0.122
	c0.027,0.045,0.059,0.085,0.095,0.122c0.036,0.036,0.063,0.063,0.081,0.081c0.018,0.018,0.036,0.045,0.054,0.081
	c0.216,0.18,0.427,0.333,0.634,0.459C29.443,16.698,29.7,16.788,30.006,16.842z"/>
<path stroke="#000000" stroke-width="0.25" d="M49.796,11.766c0.036,0.072,0.041,0.18,0.014,0.324
	c-0.027,0.145-0.059,0.293-0.094,0.446c-0.037,0.153-0.077,0.302-0.122,0.445c-0.045,0.145-0.077,0.252-0.095,0.324
	c-0.09,0.324-0.18,0.63-0.27,0.918c-0.09,0.252-0.18,0.504-0.27,0.756c-0.09,0.252-0.171,0.459-0.243,0.621
	c-0.019,0.036-0.032,0.072-0.041,0.108c-0.009,0.036-0.032,0.072-0.068,0.108c-0.036,0.054-0.072,0.099-0.108,0.135
	c-0.162,0.36-0.333,0.666-0.513,0.918c-0.18,0.252-0.315,0.45-0.405,0.594c-0.36,0.522-0.814,1.04-1.363,1.553
	c-0.549,0.513-1.058,0.976-1.526,1.391c-0.198,0.18-0.374,0.346-0.526,0.5c-0.153,0.152-0.239,0.238-0.256,0.256
	c-0.198,0.18-0.482,0.405-0.851,0.675c-0.369,0.27-0.715,0.54-1.04,0.81c-0.018,0.036-0.027,0.077-0.027,0.122
	s-0.009,0.085-0.027,0.122c-0.09,0.468-0.199,1.026-0.324,1.674c-0.126,0.648-0.261,1.3-0.405,1.958
	c-0.145,0.657-0.279,1.273-0.405,1.85c-0.126,0.576-0.225,1.017-0.297,1.323c-0.054,0.144-0.095,0.288-0.122,0.432
	s-0.067,0.288-0.122,0.432c-0.126,0.306-0.256,0.621-0.392,0.945c-0.135,0.324-0.274,0.63-0.418,0.918
	c-0.162,0.306-0.432,0.684-0.81,1.134c-0.234,0.252-0.472,0.441-0.715,0.567c-0.243,0.125-0.482,0.207-0.715,0.243
	c-0.162,0.054-0.333,0.081-0.513,0.081c-0.18,0-0.351,0-0.513,0c-0.162,0-0.333-0.045-0.513-0.135
	c-0.072-0.036-0.135-0.081-0.189-0.135l-0.162-0.162c-0.36-0.36-0.558-0.792-0.594-1.296c-0.09-0.415-0.108-0.9-0.054-1.458
	c0.036-0.199,0.085-0.491,0.148-0.878c0.063-0.387,0.122-0.679,0.175-0.877c0.037-0.198,0.077-0.374,0.122-0.526
	c0.045-0.153,0.086-0.274,0.122-0.364c0.108-0.27,0.221-0.545,0.337-0.824c0.118-0.279,0.266-0.572,0.446-0.877
	c0.018-0.036,0.036-0.067,0.054-0.095c0.018-0.027,0.037-0.059,0.054-0.094c0.018,0,0.027-0.009,0.027-0.027
	c0.378-0.612,0.778-1.188,1.202-1.728c0.423-0.54,0.868-1.098,1.336-1.674c0.054-0.072,0.112-0.135,0.175-0.189
	c0.063-0.054,0.122-0.108,0.176-0.162c0.072-0.072,0.139-0.135,0.203-0.189c0.062-0.054,0.112-0.099,0.148-0.135
	c0.198-0.145,0.418-0.351,0.661-0.621c0.243-0.27,0.437-0.468,0.581-0.594c0-0.037,0.004-0.059,0.014-0.068
	c0.009-0.009,0.014-0.022,0.014-0.041c0.036-0.144,0.085-0.364,0.148-0.661c0.063-0.297,0.13-0.572,0.203-0.824
	c0.018-0.108,0.031-0.194,0.04-0.256c0.009-0.063,0.014-0.113,0.014-0.148c0-0.198-0.023-0.275-0.067-0.229
	c-0.045,0.044-0.14,0.112-0.284,0.202c-0.45,0.27-0.99,0.405-1.62,0.405c-0.54,0-0.995-0.113-1.363-0.337
	c-0.369-0.226-0.68-0.599-0.932-1.121c-0.126-0.216-0.198-0.396-0.216-0.54c-0.036-0.072-0.063-0.144-0.081-0.216
	c-0.018-0.071-0.045-0.152-0.081-0.243c-0.054-0.198-0.112-0.427-0.175-0.688c-0.063-0.261-0.085-0.508-0.067-0.743
	c-0.036-0.503-0.027-0.932,0.027-1.282c0.054-0.351,0.135-0.751,0.243-1.202c0.054-0.27,0.126-0.522,0.216-0.756
	c0.09-0.234,0.189-0.504,0.297-0.81c0.018-0.036,0.031-0.067,0.041-0.095c0.009-0.027,0.022-0.058,0.041-0.094
	c0.036-0.09,0.081-0.203,0.135-0.338c0.054-0.135,0.122-0.265,0.203-0.391s0.176-0.234,0.284-0.324
	c0.108-0.09,0.233-0.125,0.378-0.108c0.216,0.036,0.387,0.117,0.513,0.243c0.054,0.072,0.09,0.148,0.108,0.229
	c0.018,0.081,0.036,0.167,0.054,0.256c0,0.036-0.022,0.104-0.067,0.203s-0.094,0.202-0.148,0.311
	c-0.054,0.108-0.108,0.211-0.162,0.31c-0.054,0.1-0.09,0.176-0.108,0.229c-0.216,0.522-0.374,1.049-0.473,1.58
	c-0.099,0.531-0.158,1.058-0.175,1.58c-0.018,0.198-0.009,0.423,0.027,0.675s0.09,0.486,0.162,0.702
	c0.036,0.27,0.122,0.531,0.256,0.783c0.135,0.252,0.337,0.45,0.607,0.594c0.144,0.09,0.311,0.117,0.5,0.081
	c0.189-0.036,0.355-0.072,0.5-0.108c0.198-0.072,0.378-0.153,0.54-0.243c0.162-0.09,0.342-0.216,0.54-0.378
	c0.198-0.198,0.418-0.486,0.662-0.864s0.4-0.738,0.473-1.08c0.125-0.27,0.198-0.504,0.216-0.702
	c0.036-0.162,0.081-0.333,0.135-0.513c0.054-0.18,0.125-0.396,0.216-0.648c0.018-0.09,0.041-0.175,0.067-0.256
	s0.054-0.184,0.081-0.311c0.027-0.125,0.054-0.279,0.081-0.459c0.027-0.18,0.058-0.414,0.094-0.702
	c0.018-0.108,0.045-0.248,0.081-0.419c0.036-0.17,0.081-0.333,0.135-0.486c0.054-0.153,0.125-0.284,0.216-0.392
	c0.09-0.108,0.207-0.152,0.351-0.135c0.252,0,0.432,0.054,0.54,0.162c0.108,0.108,0.166,0.266,0.175,0.472
	c0.009,0.208-0.013,0.455-0.067,0.743c-0.054,0.288-0.108,0.603-0.162,0.945c-0.09,0.468-0.193,0.958-0.311,1.472
	s-0.248,1.003-0.391,1.472c-0.037,0.198-0.081,0.405-0.135,0.621c-0.054,0.216-0.117,0.468-0.189,0.756
	c-0.018,0.018-0.059,0.167-0.122,0.445c-0.063,0.279-0.112,0.518-0.148,0.715c0,0.037-0.013,0.122-0.041,0.257
	c-0.027,0.135-0.059,0.301-0.094,0.5c-0.037,0.198-0.077,0.418-0.122,0.661c-0.045,0.243-0.095,0.481-0.148,0.716
	c0.18-0.108,0.369-0.243,0.567-0.405c0.072-0.072,0.229-0.211,0.473-0.418c0.243-0.207,0.503-0.441,0.783-0.702
	c0.279-0.261,0.554-0.513,0.824-0.756c0.27-0.243,0.477-0.436,0.621-0.581c0.251-0.251,0.486-0.517,0.702-0.796
	c0.216-0.279,0.396-0.544,0.54-0.796c0.18-0.27,0.333-0.54,0.459-0.81c0.18-0.396,0.374-0.9,0.581-1.512
	c0.207-0.611,0.436-1.278,0.688-1.998c0.108-0.288,0.301-0.428,0.581-0.419C49.441,11.329,49.652,11.478,49.796,11.766z
	 M40.077,25.455c0.018-0.198,0.041-0.365,0.067-0.5c0.027-0.135,0.049-0.266,0.067-0.392s0.036-0.256,0.054-0.392
	c0.018-0.135,0.045-0.301,0.081-0.5c-0.018,0.036-0.067,0.085-0.148,0.149c-0.081,0.062-0.131,0.103-0.148,0.121
	c-0.09,0.09-0.216,0.243-0.378,0.459c-0.162,0.216-0.315,0.405-0.459,0.567c-0.072,0.09-0.14,0.184-0.202,0.283
	c-0.063,0.099-0.14,0.203-0.229,0.311c-0.307,0.414-0.608,0.824-0.905,1.229c-0.297,0.405-0.599,0.895-0.904,1.472
	c0,0.018-0.009,0.036-0.027,0.054c-0.054,0.144-0.108,0.274-0.162,0.392c-0.054,0.117-0.108,0.247-0.162,0.392
	c-0.145,0.342-0.27,0.77-0.378,1.282c-0.108,0.513-0.189,0.94-0.243,1.283c-0.054,0.63,0.054,1.098,0.324,1.404
	c0.18,0.09,0.387,0.099,0.621,0.027c0.144-0.037,0.292-0.122,0.445-0.257c0.153-0.135,0.297-0.279,0.432-0.432
	c0.135-0.153,0.247-0.293,0.337-0.418c0.09-0.126,0.135-0.199,0.135-0.216v-0.027c0.162-0.306,0.306-0.653,0.432-1.04
	c0.126-0.387,0.261-0.761,0.405-1.121c0.054-0.234,0.112-0.459,0.176-0.675c0.063-0.216,0.122-0.441,0.175-0.675
	c0.09-0.45,0.189-0.896,0.297-1.336C39.888,26.458,39.986,25.977,40.077,25.455z"/>
<path stroke="#000000" stroke-width="0.25" d="M66.568,12.005c0.036,0.072,0.045,0.189,0.027,0.351
	c-0.019,0.162-0.045,0.333-0.081,0.513c-0.037,0.18-0.081,0.347-0.135,0.5c-0.054,0.153-0.09,0.256-0.108,0.311
	c-0.126,0.288-0.243,0.558-0.351,0.81c-0.09,0.216-0.189,0.441-0.297,0.675s-0.207,0.414-0.297,0.54
	c-0.288,0.468-0.612,0.914-0.972,1.336c-0.36,0.423-0.801,0.814-1.323,1.174c-0.162,0.108-0.401,0.239-0.716,0.392
	c-0.315,0.153-0.581,0.256-0.796,0.311c-0.288,0.108-0.63,0.117-1.026,0.027c-0.108-0.036-0.208-0.072-0.297-0.108
	c-0.09-0.036-0.171-0.067-0.243-0.094c-0.072-0.027-0.126-0.059-0.162-0.095c-0.144-0.108-0.288-0.27-0.432-0.486
	c-0.144-0.216-0.234-0.459-0.27-0.729c0-0.054-0.004-0.099-0.013-0.135c-0.009-0.036-0.014-0.072-0.014-0.108v-0.027
	c-0.036-0.252-0.045-0.481-0.027-0.688s0.036-0.418,0.054-0.635c-0.018,0.018-0.013-0.09,0.014-0.324s0.058-0.432,0.094-0.594
	c0-0.072,0-0.094,0-0.067s-0.004,0.067-0.013,0.122c-0.009,0.054-0.018,0.094-0.027,0.122c-0.009,0.027-0.005-0.004,0.013-0.095
	c0.018-0.054,0.041-0.148,0.067-0.284c0.027-0.135,0.054-0.274,0.081-0.418c0.027-0.144,0.054-0.279,0.081-0.405
	s0.049-0.216,0.067-0.27c0.036-0.036,0.068-0.171,0.095-0.405s0.058-0.387,0.095-0.459c0.018-0.108,0.058-0.27,0.121-0.486
	c0.063-0.216,0.185-0.666,0.365-1.35c0.018-0.09,0.036-0.193,0.054-0.311c0.018-0.117,0.063-0.328,0.135-0.634
	c0-0.036,0.004-0.072,0.014-0.108c0.009-0.036,0.018-0.095,0.027-0.176c0.009-0.081,0.036-0.189,0.081-0.324
	c0.044-0.135,0.112-0.319,0.202-0.554c0.126-0.18,0.266-0.274,0.419-0.283c0.152-0.009,0.256-0.022,0.31-0.041l0.27,0.054
	l0.108,0.081c0.09,0.054,0.144,0.207,0.162,0.459c0.018,0.252,0.009,0.441-0.027,0.567c-0.036,0.108-0.063,0.226-0.081,0.351
	c-0.018,0.126-0.045,0.252-0.081,0.378c-0.018,0.09-0.036,0.18-0.054,0.27c-0.018,0.09-0.054,0.234-0.108,0.432
	c0.018-0.036,0.013,0-0.014,0.108c-0.027,0.108-0.067,0.248-0.122,0.418c-0.054,0.171-0.113,0.356-0.175,0.554
	c-0.063,0.198-0.104,0.36-0.122,0.486c-0.018,0.09-0.05,0.221-0.095,0.392c-0.045,0.171-0.085,0.351-0.122,0.54
	s-0.072,0.374-0.108,0.554c-0.036,0.18-0.063,0.324-0.081,0.432c-0.036,0.09-0.067,0.208-0.094,0.351
	c-0.027,0.145-0.05,0.261-0.067,0.351c-0.019,0.18-0.032,0.311-0.041,0.392c-0.009,0.081-0.019,0.148-0.027,0.203
	c-0.009,0.054-0.013,0.121-0.013,0.202s0,0.212,0,0.392c0,0.108,0.004,0.221,0.013,0.337c0.009,0.117,0.014,0.203,0.014,0.257
	c0,0.054,0.027,0.117,0.081,0.189c0.036,0.054,0.085,0.104,0.148,0.148c0.063,0.045,0.148,0.077,0.256,0.094
	c0.162,0.037,0.455-0.044,0.877-0.243s0.869-0.558,1.337-1.08c0.108-0.144,0.22-0.261,0.337-0.351
	c0.117-0.09,0.229-0.234,0.337-0.432c0.198-0.324,0.387-0.657,0.567-0.999c0.144-0.306,0.297-0.643,0.459-1.012
	c0.162-0.369,0.297-0.751,0.405-1.147c0.036-0.144,0.108-0.27,0.216-0.378c0.108-0.108,0.225-0.18,0.351-0.216
	c0.125-0.036,0.252-0.027,0.378,0.027C66.397,11.708,66.496,11.825,66.568,12.005z M61.627,7.82
	c-0.306-0.054-0.531-0.18-0.675-0.378c-0.145-0.198-0.198-0.45-0.162-0.756c0.018-0.18,0.081-0.328,0.189-0.445
	s0.238-0.203,0.392-0.257c0.153-0.054,0.306-0.085,0.459-0.094c0.153-0.009,0.292,0.004,0.418,0.041
	c0.216,0.054,0.378,0.216,0.486,0.486c0.054,0.27,0.054,0.54,0,0.81c0,0.072-0.027,0.153-0.081,0.243
	c-0.054,0.09-0.117,0.162-0.189,0.216c0,0.018-0.009,0.027-0.027,0.027c-0.108,0.072-0.239,0.113-0.392,0.122
	C61.893,7.843,61.753,7.838,61.627,7.82z"/>
<path stroke="#000000" stroke-width="0.25" d="M71.617,11.978c0.036,0.072,0.044,0.18,0.027,0.324
	c-0.018,0.145-0.045,0.302-0.081,0.473c-0.036,0.171-0.077,0.329-0.122,0.473s-0.077,0.252-0.094,0.324
	c-0.072,0.216-0.145,0.423-0.216,0.621c-0.054,0.18-0.118,0.369-0.189,0.567c-0.072,0.198-0.135,0.378-0.189,0.54
	c-0.018,0.037-0.036,0.077-0.054,0.122c-0.018,0.045-0.036,0.086-0.054,0.122l-0.054,0.162c-0.145,0.36-0.288,0.707-0.432,1.04
	c-0.145,0.333-0.252,0.571-0.324,0.715l-0.432,0.81c-0.216,0.342-0.428,0.679-0.635,1.012s-0.329,0.509-0.364,0.527l-0.324,0.405
	c-0.234,0.216-0.477,0.405-0.729,0.567c-0.234,0.144-0.45,0.243-0.648,0.297c-0.288,0.108-0.63,0.117-1.026,0.027
	c-0.108-0.036-0.207-0.072-0.297-0.108c-0.09-0.037-0.171-0.067-0.243-0.095c-0.072-0.027-0.126-0.059-0.162-0.094
	c-0.144-0.108-0.288-0.27-0.432-0.486c-0.144-0.216-0.234-0.459-0.27-0.729c0-0.054-0.004-0.099-0.013-0.135
	c-0.009-0.036-0.014-0.072-0.014-0.108v-0.027c-0.036-0.252-0.045-0.481-0.027-0.688c0.018-0.207,0.036-0.418,0.054-0.634
	c-0.018,0.018-0.013-0.09,0.014-0.324c0.027-0.233,0.058-0.432,0.095-0.594c0.054-0.36,0.121-0.729,0.202-1.107
	s0.167-0.81,0.257-1.296c0.071-0.396,0.162-0.873,0.27-1.431c0.108-0.558,0.216-1.044,0.324-1.458
	c0.018-0.108,0.067-0.328,0.148-0.662c0.081-0.333,0.162-0.711,0.243-1.134s0.162-0.837,0.243-1.242
	c0.081-0.405,0.148-0.733,0.202-0.985c0.036-0.126,0.077-0.292,0.122-0.5s0.031-0.311-0.041-0.311
	c-0.09-0.018-0.135-0.022-0.135-0.014c0,0.009-0.063-0.004-0.189-0.041c-0.324-0.072-0.441-0.36-0.351-0.864
	c0.036-0.162,0.085-0.284,0.148-0.365c0.063-0.081,0.13-0.135,0.203-0.162c0.071-0.027,0.144-0.045,0.216-0.054
	c0.072-0.009,0.135-0.014,0.189-0.014c0.036,0,0.095-0.004,0.175-0.013c0.081-0.009,0.13-0.031,0.149-0.068
	c0.018-0.09,0.062-0.251,0.135-0.486c0.072-0.234,0.148-0.49,0.229-0.77c0.081-0.279,0.162-0.567,0.243-0.864
	c0.081-0.297,0.148-0.554,0.202-0.77c0.09-0.342,0.239-0.688,0.446-1.04c0.207-0.351,0.392-0.616,0.553-0.796
	c0.252-0.234,0.432-0.378,0.54-0.432c0.108-0.054,0.252-0.081,0.432-0.081c0.108,0,0.18,0.018,0.216,0.054s0.099,0.099,0.189,0.189
	c0.018,0.036,0.036,0.077,0.054,0.121c0.018,0.045,0.036,0.113,0.054,0.203c0.036,0.162,0.018,0.293-0.054,0.392
	c-0.072,0.099-0.207,0.221-0.405,0.364c-0.126,0.145-0.279,0.365-0.459,0.662c-0.18,0.297-0.307,0.59-0.378,0.877
	c-0.072,0.27-0.145,0.531-0.216,0.783c-0.054,0.216-0.108,0.445-0.162,0.688c-0.054,0.243-0.099,0.455-0.135,0.634
	c0,0.019-0.009,0.081-0.027,0.189c-0.019,0.108,0.009,0.162,0.081,0.162c0.252,0,0.531,0.027,0.837,0.081
	c0.251,0.072,0.378,0.207,0.378,0.405s-0.045,0.423-0.135,0.675c-0.144,0.234-0.288,0.347-0.432,0.337
	c-0.145-0.009-0.324-0.013-0.54-0.013c-0.018,0-0.104-0.004-0.257-0.014c-0.153-0.009-0.239-0.004-0.256,0.014
	c-0.054,0.054-0.081,0.117-0.081,0.189c-0.018,0.108-0.041,0.193-0.067,0.256c-0.027,0.063-0.059,0.167-0.095,0.311
	c-0.018,0.054-0.031,0.113-0.041,0.175c-0.009,0.063-0.022,0.122-0.041,0.176c-0.09,0.522-0.18,1.017-0.27,1.485
	c-0.09,0.414-0.176,0.837-0.257,1.269s-0.167,0.783-0.256,1.053c-0.018,0.108-0.036,0.212-0.054,0.311
	c-0.018,0.099-0.036,0.194-0.054,0.284c-0.037,0.162-0.063,0.297-0.081,0.405l-0.027,0.135c-0.054,0.306-0.108,0.599-0.162,0.877
	c-0.054,0.279-0.126,0.625-0.216,1.04l-0.108,0.594c-0.036,0.108-0.054,0.216-0.054,0.324c0,0.036-0.019,0.126-0.054,0.27
	c-0.036,0.378-0.095,0.792-0.175,1.242c-0.081,0.45-0.122,0.882-0.122,1.296c0,0.108,0.004,0.221,0.013,0.337
	s0.014,0.203,0.014,0.256c0,0.072,0.027,0.144,0.081,0.216c0.036,0.054,0.085,0.103,0.148,0.148
	c0.063,0.044,0.148,0.076,0.256,0.094c0.144,0.036,0.266,0.031,0.365-0.013c0.099-0.045,0.175-0.086,0.229-0.122
	c0.09-0.09,0.18-0.194,0.27-0.311c0.09-0.117,0.18-0.221,0.27-0.311l0.864-1.404c0.108-0.18,0.225-0.392,0.351-0.635
	s0.243-0.481,0.351-0.715s0.234-0.513,0.378-0.837c0.108-0.396,0.274-0.873,0.5-1.431c0.225-0.558,0.418-1.125,0.581-1.701
	c0.036-0.144,0.108-0.261,0.216-0.351c0.108-0.09,0.225-0.148,0.351-0.175s0.252-0.014,0.378,0.041S71.526,11.852,71.617,11.978z"/>
<path stroke="#000000" stroke-width="0.25" d="M76.639,11.978c0.036,0.072,0.044,0.18,0.027,0.324
	c-0.018,0.145-0.045,0.302-0.081,0.473c-0.036,0.171-0.077,0.329-0.122,0.473s-0.077,0.252-0.094,0.324
	c-0.072,0.216-0.145,0.423-0.216,0.621c-0.054,0.18-0.118,0.369-0.189,0.567c-0.072,0.198-0.135,0.378-0.189,0.54
	c-0.018,0.037-0.036,0.077-0.054,0.122c-0.018,0.045-0.036,0.086-0.054,0.122l-0.054,0.162c-0.145,0.36-0.288,0.707-0.432,1.04
	c-0.145,0.333-0.252,0.571-0.324,0.715l-0.432,0.81c-0.216,0.342-0.428,0.679-0.635,1.012s-0.329,0.509-0.364,0.527l-0.324,0.405
	c-0.234,0.216-0.477,0.405-0.729,0.567c-0.234,0.144-0.45,0.243-0.648,0.297c-0.288,0.108-0.63,0.117-1.026,0.027
	c-0.108-0.036-0.207-0.072-0.297-0.108c-0.09-0.037-0.171-0.067-0.243-0.095c-0.072-0.027-0.126-0.059-0.162-0.094
	c-0.144-0.108-0.288-0.27-0.432-0.486c-0.144-0.216-0.234-0.459-0.27-0.729c0-0.054-0.004-0.099-0.013-0.135
	c-0.009-0.036-0.014-0.072-0.014-0.108v-0.027c-0.036-0.252-0.045-0.481-0.027-0.688c0.018-0.207,0.036-0.418,0.054-0.634
	c-0.018,0.018-0.013-0.09,0.014-0.324c0.027-0.233,0.058-0.432,0.095-0.594c0.054-0.36,0.121-0.729,0.202-1.107
	s0.167-0.81,0.257-1.296c0.071-0.396,0.162-0.873,0.27-1.431c0.108-0.558,0.216-1.044,0.324-1.458
	c0.018-0.108,0.067-0.328,0.148-0.662c0.081-0.333,0.162-0.711,0.243-1.134s0.162-0.837,0.243-1.242
	c0.081-0.405,0.148-0.733,0.202-0.985c0.036-0.126,0.077-0.292,0.122-0.5s0.031-0.311-0.041-0.311
	c-0.09-0.018-0.135-0.022-0.135-0.014c0,0.009-0.063-0.004-0.189-0.041c-0.324-0.072-0.441-0.36-0.351-0.864
	c0.036-0.162,0.085-0.284,0.148-0.365c0.063-0.081,0.13-0.135,0.203-0.162c0.071-0.027,0.144-0.045,0.216-0.054
	c0.072-0.009,0.135-0.014,0.189-0.014c0.036,0,0.095-0.004,0.175-0.013c0.081-0.009,0.13-0.031,0.149-0.068
	c0.018-0.09,0.062-0.251,0.135-0.486c0.072-0.234,0.148-0.49,0.229-0.77c0.081-0.279,0.162-0.567,0.243-0.864
	c0.081-0.297,0.148-0.554,0.202-0.77c0.09-0.342,0.239-0.688,0.446-1.04c0.207-0.351,0.392-0.616,0.553-0.796
	c0.252-0.234,0.432-0.378,0.54-0.432c0.108-0.054,0.252-0.081,0.432-0.081c0.108,0,0.18,0.018,0.216,0.054s0.099,0.099,0.189,0.189
	C74.982,0.404,75,0.445,75.019,0.489c0.018,0.045,0.036,0.113,0.054,0.203c0.036,0.162,0.018,0.293-0.054,0.392
	c-0.072,0.099-0.207,0.221-0.405,0.364c-0.126,0.145-0.279,0.365-0.459,0.662c-0.18,0.297-0.307,0.59-0.378,0.877
	c-0.072,0.27-0.145,0.531-0.216,0.783c-0.054,0.216-0.108,0.445-0.162,0.688c-0.054,0.243-0.099,0.455-0.135,0.634
	c0,0.019-0.009,0.081-0.027,0.189c-0.019,0.108,0.009,0.162,0.081,0.162c0.252,0,0.531,0.027,0.837,0.081
	c0.251,0.072,0.378,0.207,0.378,0.405s-0.045,0.423-0.135,0.675c-0.144,0.234-0.288,0.347-0.432,0.337
	c-0.145-0.009-0.324-0.013-0.54-0.013c-0.018,0-0.104-0.004-0.257-0.014c-0.153-0.009-0.239-0.004-0.256,0.014
	c-0.054,0.054-0.081,0.117-0.081,0.189c-0.018,0.108-0.041,0.193-0.067,0.256c-0.027,0.063-0.059,0.167-0.095,0.311
	c-0.018,0.054-0.031,0.113-0.041,0.175c-0.009,0.063-0.022,0.122-0.041,0.176c-0.09,0.522-0.18,1.017-0.27,1.485
	c-0.09,0.414-0.176,0.837-0.257,1.269s-0.167,0.783-0.256,1.053c-0.018,0.108-0.036,0.212-0.054,0.311
	c-0.018,0.099-0.036,0.194-0.054,0.284c-0.037,0.162-0.063,0.297-0.081,0.405l-0.027,0.135c-0.054,0.306-0.108,0.599-0.162,0.877
	c-0.054,0.279-0.126,0.625-0.216,1.04l-0.108,0.594c-0.036,0.108-0.054,0.216-0.054,0.324c0,0.036-0.019,0.126-0.054,0.27
	c-0.036,0.378-0.095,0.792-0.175,1.242c-0.081,0.45-0.122,0.882-0.122,1.296c0,0.108,0.004,0.221,0.013,0.337
	s0.014,0.203,0.014,0.256c0,0.072,0.027,0.144,0.081,0.216c0.036,0.054,0.085,0.103,0.148,0.148
	c0.063,0.044,0.148,0.076,0.256,0.094c0.144,0.036,0.266,0.031,0.365-0.013c0.099-0.045,0.175-0.086,0.229-0.122
	c0.09-0.09,0.18-0.194,0.27-0.311c0.09-0.117,0.18-0.221,0.27-0.311l0.864-1.404c0.108-0.18,0.225-0.392,0.351-0.635
	s0.243-0.481,0.351-0.715s0.234-0.513,0.378-0.837c0.108-0.396,0.274-0.873,0.5-1.431c0.225-0.558,0.418-1.125,0.581-1.701
	c0.036-0.144,0.108-0.261,0.216-0.351c0.108-0.09,0.225-0.148,0.351-0.175s0.252-0.014,0.378,0.041S76.548,11.852,76.639,11.978z"/>
<path stroke="#000000" stroke-width="0.25" d="M86.682,11.789c0.036,0.072,0.041,0.18,0.013,0.324
	c-0.027,0.145-0.059,0.297-0.094,0.459c-0.037,0.162-0.081,0.315-0.135,0.459c-0.054,0.145-0.09,0.252-0.108,0.324
	c-0.144,0.432-0.279,0.801-0.405,1.107c-0.126,0.306-0.27,0.576-0.432,0.81c-0.162,0.234-0.351,0.455-0.567,0.662
	c-0.216,0.207-0.486,0.428-0.81,0.662c-0.685,0.486-1.414,0.841-2.187,1.066c-0.774,0.225-1.544,0.297-2.309,0.216
	c-0.765-0.081-1.494-0.324-2.187-0.729c-0.693-0.405-1.301-0.994-1.822-1.769c-0.037-0.072-0.086-0.198-0.149-0.378
	c-0.063-0.18-0.112-0.314-0.148-0.405c-0.036-0.054-0.054-0.126-0.054-0.216c0-0.09-0.018-0.27-0.054-0.54
	c-0.018-0.09-0.023-0.207-0.014-0.351s0.031-0.423,0.068-0.837c0-0.072,0.009-0.157,0.027-0.256
	c0.018-0.099,0.063-0.274,0.135-0.526c0.108-0.414,0.279-0.846,0.513-1.296c0.108-0.18,0.22-0.36,0.337-0.54
	c0.117-0.18,0.274-0.387,0.473-0.621c0.036-0.054,0.081-0.108,0.135-0.162c0.054-0.054,0.108-0.108,0.162-0.162
	c0.036-0.036,0.126-0.112,0.27-0.229c0.144-0.117,0.45-0.337,0.918-0.662c0.198-0.09,0.387-0.184,0.567-0.283
	c0.18-0.099,0.369-0.176,0.567-0.229c0.108-0.036,0.171-0.054,0.189-0.054c0.216-0.09,0.418-0.139,0.607-0.148
	c0.189-0.009,0.382-0.014,0.581-0.014c0.432,0.037,0.846,0.153,1.242,0.351c0.27,0.145,0.459,0.36,0.567,0.648
	c0.036,0.054,0.067,0.126,0.094,0.216c0.027,0.09,0.049,0.18,0.067,0.27c0.036,0.144,0.054,0.266,0.054,0.364
	c0,0.099,0,0.167,0,0.203c0,0.054-0.014,0.131-0.041,0.229c-0.027,0.099-0.063,0.207-0.108,0.324
	c-0.045,0.117-0.09,0.234-0.135,0.351c-0.045,0.118-0.077,0.203-0.094,0.257c-0.054,0.108-0.131,0.229-0.229,0.364
	c-0.099,0.135-0.284,0.356-0.554,0.662c-0.09,0.09-0.158,0.148-0.202,0.175c-0.045,0.027-0.158,0.095-0.338,0.203
	c-0.126,0.108-0.315,0.207-0.567,0.297c-0.072,0.037-0.193,0.068-0.364,0.095c-0.171,0.027-0.356,0.059-0.554,0.094
	c-0.09,0.019-0.18,0.032-0.27,0.041c-0.09,0.009-0.225,0.014-0.405,0.014c-0.288,0-0.563-0.018-0.824-0.054
	c-0.261-0.036-0.572-0.135-0.932-0.297c-0.036-0.018-0.072-0.036-0.108-0.054s-0.126-0.054-0.27-0.108
	c-0.036,0.162-0.067,0.324-0.094,0.486c-0.027,0.162-0.059,0.351-0.095,0.567v0.162c-0.018,0.306,0,0.562,0.054,0.77
	c0.054,0.207,0.153,0.418,0.297,0.634c0.324,0.45,0.715,0.815,1.174,1.094c0.459,0.279,0.963,0.463,1.512,0.553
	c0.549,0.09,1.129,0.067,1.742-0.067c0.611-0.135,1.215-0.4,1.809-0.796c0.144-0.09,0.355-0.248,0.635-0.473
	c0.279-0.225,0.544-0.571,0.796-1.04c0.126-0.234,0.225-0.436,0.297-0.607c0.072-0.171,0.135-0.337,0.189-0.5
	c0.054-0.162,0.104-0.328,0.149-0.5c0.044-0.171,0.112-0.374,0.202-0.607c0.054-0.144,0.135-0.252,0.243-0.324
	c0.108-0.072,0.22-0.108,0.337-0.108s0.234,0.036,0.351,0.108C86.515,11.537,86.61,11.645,86.682,11.789z M77.367,10.898
	c0.036,0.018,0.071,0.041,0.108,0.067c0.036,0.027,0.072,0.041,0.108,0.041c0.018,0.018,0.049,0.037,0.094,0.054
	c0.045,0.018,0.167,0.063,0.365,0.135c0.072,0.018,0.139,0.032,0.203,0.041c0.062,0.009,0.139,0.032,0.229,0.068
	c0.054,0,0.125,0.013,0.216,0.04c0.09,0.027,0.189,0.032,0.297,0.014c0.18,0,0.351-0.027,0.513-0.081
	c0.125-0.018,0.301-0.063,0.526-0.135s0.392-0.153,0.5-0.243c0.018-0.018,0.122-0.085,0.311-0.203
	c0.189-0.117,0.382-0.346,0.581-0.688c0.198-0.342,0.153-0.675-0.135-0.999c-0.09-0.09-0.18-0.144-0.27-0.162
	c-0.036-0.018-0.104-0.031-0.202-0.041c-0.099-0.009-0.167-0.014-0.203-0.014H80.58c-0.108,0-0.27,0.014-0.486,0.041
	c-0.216,0.027-0.387,0.067-0.513,0.122c-0.126,0.054-0.234,0.112-0.324,0.175c-0.09,0.063-0.198,0.131-0.324,0.203
	c-0.037,0.036-0.104,0.085-0.203,0.148c-0.099,0.063-0.256,0.175-0.473,0.337c-0.144,0.108-0.239,0.189-0.283,0.243
	c-0.045,0.054-0.14,0.171-0.284,0.351L77.367,10.898z"/>
<path stroke="#000000" stroke-width="0.25" d="M93.135,22.265l-0.189,0.27l-0.108,0.135c-0.09,0.144-0.185,0.27-0.283,0.378
	c-0.099,0.108-0.194,0.207-0.284,0.297c-0.145,0.144-0.324,0.279-0.54,0.405c-0.198,0.09-0.423,0.166-0.675,0.229
	c-0.252,0.063-0.496,0.095-0.729,0.095c-0.307-0.037-0.657-0.194-1.053-0.473c-0.396-0.279-0.675-0.671-0.837-1.175
	c-0.036-0.144-0.063-0.27-0.081-0.378c-0.018-0.108-0.045-0.216-0.081-0.324c-0.036-0.252-0.045-0.477-0.027-0.675
	c0.018-0.198,0.036-0.396,0.054-0.594c-0.018,0.018-0.013-0.086,0.014-0.311c0.027-0.225,0.058-0.418,0.095-0.581
	c0-0.054,0.018-0.203,0.054-0.445c0.036-0.243,0.072-0.508,0.108-0.797c0.036-0.288,0.072-0.553,0.108-0.796
	c0.036-0.243,0.062-0.392,0.081-0.445c0.036-0.288,0.099-0.612,0.189-0.972l0.27-1.107l0.162-0.675
	c0.036-0.072,0.068-0.198,0.095-0.378c0.027-0.18,0.049-0.288,0.067-0.324c0.09-0.27,0.157-0.544,0.203-0.824
	c0.044-0.279,0.103-0.562,0.175-0.85c0.054-0.18,0.081-0.423,0.081-0.729c0-0.036,0-0.077,0-0.122s-0.018-0.095-0.054-0.148
	l-0.135-0.162c-0.036-0.036-0.072-0.076-0.108-0.122c-0.036-0.045-0.072-0.076-0.108-0.094c-0.037-0.036-0.126-0.081-0.27-0.135
	c-0.145-0.054-0.243-0.09-0.297-0.108l-1.269-0.459c-0.216-0.126-0.342-0.18-0.378-0.162c-0.036,0.018-0.072,0.117-0.108,0.297
	c-0.036,0.108-0.099,0.329-0.189,0.662c-0.09,0.333-0.189,0.698-0.297,1.094s-0.216,0.788-0.324,1.174
	c-0.108,0.387-0.189,0.688-0.243,0.904c-0.054,0.198-0.18,0.369-0.378,0.513c-0.199,0.144-0.405,0.153-0.621,0.027
	c-0.252-0.162-0.351-0.396-0.297-0.702c0-0.018,0.004-0.036,0.014-0.054c0.009-0.018,0.014-0.036,0.014-0.054
	c0.144-0.54,0.261-0.98,0.351-1.323c0.09-0.342,0.175-0.666,0.256-0.972c0.081-0.306,0.13-0.486,0.148-0.54
	c0.054-0.288,0.095-0.517,0.122-0.688c0.027-0.171,0.049-0.301,0.067-0.392c0.018-0.09,0.027-0.162,0.027-0.216
	c0-0.054,0-0.099,0-0.135c0.018-0.054,0.018-0.198,0-0.432s-0.027-0.396-0.027-0.486c-0.018-0.072-0.036-0.144-0.054-0.216
	c-0.019-0.072-0.027-0.144-0.027-0.216c-0.018-0.036-0.027-0.09-0.027-0.162c0.018-0.054,0.022-0.076,0.014-0.067
	c-0.009,0.009-0.005-0.014,0.013-0.067c0.018-0.18,0.095-0.324,0.229-0.432c0.135-0.108,0.284-0.171,0.446-0.189
	c0.162-0.018,0.314,0.013,0.459,0.094c0.144,0.081,0.233,0.212,0.27,0.392c0,0.036,0.013,0.085,0.041,0.148
	c0.027,0.063,0.031,0.113,0.013,0.148l0.054,0.135c0.072,0.054,0.144,0.131,0.216,0.229c0.072,0.099,0.144,0.167,0.216,0.203
	l0.27,0.108c0.144,0.072,0.355,0.153,0.634,0.243c0.279,0.09,0.67,0.243,1.174,0.459c0.054,0.019,0.162,0.054,0.324,0.108
	c0.162,0.054,0.261,0.099,0.297,0.135c0.072,0.036,0.157,0.09,0.256,0.162c0.099,0.072,0.176,0.144,0.229,0.216
	c0.054,0.054,0.108,0.122,0.162,0.203c0.054,0.081,0.135,0.274,0.243,0.581c0.036,0.108,0.054,0.212,0.054,0.311
	c0,0.099-0.009,0.202-0.027,0.311c0,0.198-0.018,0.414-0.054,0.648c-0.037,0.234-0.072,0.477-0.108,0.729
	c-0.036,0.09-0.059,0.185-0.067,0.283c-0.009,0.099-0.032,0.203-0.067,0.311c-0.018,0.09-0.036,0.176-0.054,0.257
	c-0.018,0.081-0.045,0.167-0.081,0.256c-0.036,0.144-0.059,0.229-0.067,0.256c-0.009,0.027-0.032,0.104-0.067,0.229
	c-0.018,0.09-0.036,0.171-0.054,0.243c-0.018,0.036-0.027,0.067-0.027,0.094c0,0.027-0.009,0.05-0.027,0.068l-0.027,0.054
	c0,0.037-0.009,0.081-0.027,0.135c-0.018,0.054-0.036,0.126-0.054,0.216c0,0.036-0.005,0.059-0.014,0.067
	c-0.009,0.009-0.014,0.023-0.014,0.041c0,0.018-0.027,0.108-0.081,0.27l-0.108,0.378c0,0.037-0.004,0.063-0.013,0.081
	c-0.009,0.018-0.014,0.045-0.014,0.081c-0.018,0.108-0.041,0.234-0.067,0.378c-0.027,0.145-0.041,0.226-0.041,0.243v0.054
	c-0.018,0.036-0.027,0.077-0.027,0.121c0,0.045-0.009,0.095-0.027,0.149c0,0.018-0.018,0.153-0.054,0.405
	c-0.037,0.252-0.081,0.536-0.135,0.851c-0.054,0.315-0.104,0.617-0.148,0.904s-0.077,0.468-0.095,0.54
	c0,0.018-0.004,0.036-0.013,0.054c-0.009,0.018-0.014,0.036-0.014,0.054v0.054v0.027c-0.036,0.126-0.063,0.292-0.081,0.5
	s-0.036,0.374-0.054,0.5v0.216c0.018,0.108,0.036,0.243,0.054,0.405s0.036,0.314,0.054,0.459c0.054,0.108,0.117,0.216,0.189,0.324
	c0.054,0.09,0.125,0.184,0.216,0.283c0.09,0.099,0.198,0.167,0.324,0.203c0.288,0.036,0.522,0,0.702-0.108
	c0.18-0.108,0.306-0.208,0.378-0.297c0.18-0.144,0.333-0.324,0.459-0.54c0.18-0.234,0.369-0.508,0.567-0.823
	c0.198-0.315,0.396-0.639,0.594-0.972c0,0,0.307-0.445,0.682-0.382c0,0,0.688,0.438,0.25,1.062L93.135,22.265z"/>
<path stroke="#000000" stroke-width="0.25" d="M76.786,25.786c-0.018,0.054-0.027,0.113-0.027,0.176s-0.009,0.112-0.027,0.148
	c-0.126,0.468-0.36,0.891-0.702,1.269c-0.342,0.378-0.72,0.693-1.134,0.945c-0.126,0.036-0.261,0.081-0.405,0.135
	c-0.144,0.054-0.288,0.099-0.432,0.135c-0.108,0.036-0.221,0.063-0.337,0.081c-0.117,0.018-0.239,0.045-0.364,0.081
	c-0.162,0.036-0.307,0.063-0.432,0.081c-0.126,0.018-0.243,0.027-0.351,0.027h-0.081c-0.126,0-0.274,0-0.445,0
	c-0.171,0-0.32-0.018-0.446-0.054c-0.36-0.018-0.68-0.081-0.958-0.189c-0.279-0.108-0.625-0.198-1.04-0.27l-0.108-0.054
	c-0.144-0.054-0.243-0.085-0.297-0.095c-0.054-0.009-0.189-0.058-0.405-0.148c-0.09-0.054-0.167-0.085-0.229-0.095
	c-0.063-0.009-0.149-0.049-0.257-0.121c-0.054,0-0.104,0.027-0.148,0.081c-0.045,0.054-0.085,0.118-0.122,0.189
	c-0.09,0.198-0.202,0.355-0.337,0.472c-0.135,0.117-0.256,0.275-0.364,0.473c-0.09,0.144-0.176,0.293-0.257,0.445
	c-0.081,0.153-0.175,0.311-0.283,0.473c-0.037,0.072-0.072,0.135-0.108,0.189s-0.072,0.117-0.108,0.189
	c-0.09,0.198-0.175,0.401-0.256,0.607c-0.081,0.207-0.175,0.437-0.284,0.688c-0.036,0.072-0.063,0.145-0.081,0.216
	c-0.019,0.072-0.045,0.144-0.081,0.216c-0.307,0.72-0.54,1.481-0.702,2.282s-0.145,1.562,0.054,2.281
	c0.162,0.522,0.387,1.062,0.675,1.62c0.036,0.036,0.058,0.072,0.067,0.108c0.009,0.036,0.031,0.072,0.067,0.108
	c0.054,0.108,0.126,0.234,0.216,0.378c0.09,0.145,0.189,0.297,0.297,0.459c0.108,0.162,0.216,0.315,0.324,0.459
	c0.108,0.145,0.207,0.261,0.297,0.351l0.108,0.108c0.306,0.307,0.657,0.554,1.053,0.743c0.396,0.189,0.819,0.284,1.269,0.284
	c0.036,0,0.081,0,0.135,0s0.153,0.008,0.297,0.026c0.126,0,0.225-0.009,0.297-0.026c0.072,0,0.14-0.006,0.203-0.014
	c0.063-0.01,0.139-0.014,0.229-0.014c0.036,0,0.108-0.019,0.216-0.054c0.144-0.018,0.283-0.054,0.418-0.108
	c0.135-0.054,0.265-0.099,0.391-0.135c0.09-0.054,0.176-0.108,0.257-0.162c0.081-0.054,0.175-0.108,0.283-0.162l0.054-0.027
	c0.072-0.054,0.135-0.108,0.189-0.162c0.054-0.054,0.117-0.099,0.189-0.135c0.018-0.036,0.041-0.054,0.067-0.054
	c0.027,0,0.059-0.018,0.095-0.054c0.036-0.036,0.072-0.067,0.108-0.095c0.036-0.027,0.072-0.058,0.108-0.094
	c0.054-0.054,0.104-0.095,0.148-0.122s0.085-0.058,0.122-0.095l0.054-0.054c0.036-0.036,0.085-0.09,0.148-0.162
	c0.063-0.072,0.139-0.153,0.229-0.243c0.18-0.18,0.36-0.378,0.54-0.594c0.18-0.216,0.333-0.504,0.459-0.864
	c0.108-0.27,0.162-0.603,0.162-0.999c0-0.396-0.09-0.72-0.27-0.972c-0.037-0.09-0.077-0.18-0.122-0.27
	c-0.045-0.09-0.086-0.18-0.122-0.27c-0.036-0.09-0.085-0.148-0.148-0.176c-0.063-0.027-0.122-0.076-0.176-0.148
	c-0.198-0.198-0.274-0.355-0.229-0.472s0.095-0.22,0.149-0.311c0.036-0.072,0.112-0.139,0.229-0.203
	c0.117-0.063,0.22-0.095,0.311-0.095c0.036,0,0.108,0.019,0.216,0.054c0.342,0.145,0.584,0.36,0.729,0.648
	c0.036,0.072,0.081,0.135,0.135,0.189c0.162,0.307,0.27,0.639,0.324,0.999c0.036,0.108,0.054,0.189,0.054,0.243
	c0.036,0.126,0.058,0.248,0.067,0.364c0.009,0.118,0.031,0.248,0.067,0.392c0,0.145,0,0.284,0,0.418
	c0,0.135-0.018,0.284-0.054,0.446c0,0.036-0.004,0.067-0.013,0.094c-0.009,0.027-0.014,0.05-0.014,0.067
	c0,0.054-0.023,0.145-0.067,0.27c-0.045,0.126-0.099,0.261-0.162,0.405c-0.063,0.144-0.126,0.283-0.189,0.418
	c-0.063,0.135-0.122,0.239-0.175,0.311c-0.037,0.036-0.072,0.09-0.108,0.162c-0.144,0.252-0.324,0.486-0.54,0.702l-0.081,0.081
	c-0.054,0.072-0.108,0.135-0.162,0.189c-0.054,0.054-0.108,0.126-0.162,0.216s-0.108,0.144-0.162,0.162
	c-0.018,0-0.036,0.009-0.054,0.027c-0.072,0.09-0.194,0.198-0.365,0.324c-0.171,0.126-0.355,0.252-0.553,0.378
	c-0.198,0.126-0.392,0.248-0.581,0.365c-0.189,0.116-0.337,0.211-0.446,0.283c-0.144,0.071-0.252,0.117-0.324,0.135
	c-0.036,0.018-0.108,0.045-0.216,0.081l-0.054,0.026c-0.054,0-0.108,0.018-0.162,0.055c-0.054,0.035-0.126,0.054-0.216,0.054
	c-0.09,0.036-0.189,0.067-0.297,0.095c-0.108,0.027-0.207,0.041-0.297,0.041c-0.144,0.035-0.288,0.058-0.432,0.066
	c-0.144,0.01-0.306,0.014-0.486,0.014c-0.09,0-0.175,0-0.256,0s-0.176-0.018-0.284-0.054h-0.054
	c-0.18-0.036-0.415-0.091-0.702-0.162c-0.09-0.036-0.216-0.077-0.378-0.122s-0.288-0.104-0.378-0.175
	c-0.27-0.126-0.513-0.271-0.729-0.433c-0.054-0.035-0.167-0.107-0.338-0.215c-0.171-0.108-0.319-0.217-0.445-0.324
	c-0.162-0.126-0.302-0.28-0.418-0.459c-0.117-0.18-0.248-0.351-0.392-0.513c-0.234-0.252-0.437-0.513-0.607-0.783
	c-0.171-0.27-0.329-0.558-0.473-0.864c-0.18-0.324-0.329-0.688-0.445-1.094c-0.117-0.405-0.203-0.787-0.256-1.147
	c0-0.054-0.005-0.099-0.014-0.135c-0.009-0.036-0.014-0.072-0.014-0.108c-0.018-0.09-0.027-0.184-0.027-0.283
	c0-0.099,0-0.193,0-0.284c0-0.503,0.063-1.035,0.189-1.593l0.027-0.108c0.054-0.27,0.112-0.536,0.176-0.797
	c0.063-0.261,0.148-0.526,0.256-0.796c0.054-0.216,0.139-0.427,0.256-0.634s0.203-0.428,0.257-0.662
	c0.108-0.252,0.216-0.5,0.324-0.743c0.108-0.243,0.234-0.49,0.378-0.742c0.036-0.09,0.081-0.185,0.135-0.284
	c0.054-0.099,0.125-0.211,0.216-0.337c0.036-0.09,0.072-0.167,0.108-0.229c0.036-0.063,0.081-0.122,0.135-0.176
	c0.054-0.09,0.112-0.184,0.175-0.283c0.063-0.099,0.13-0.193,0.203-0.284c0.036-0.072,0.067-0.139,0.095-0.203
	c0.027-0.062,0.058-0.112,0.094-0.148c0.018-0.036,0.045-0.072,0.081-0.108c0.036-0.036,0.067-0.076,0.095-0.122
	c0.027-0.044,0.067-0.103,0.121-0.175c0.072-0.072,0.077-0.13,0.014-0.176c-0.063-0.044-0.131-0.085-0.203-0.121
	c-0.126-0.09-0.256-0.167-0.391-0.229c-0.135-0.063-0.293-0.14-0.473-0.229c-0.036-0.018-0.063-0.031-0.081-0.041
	c-0.018-0.009-0.045-0.031-0.081-0.068c-0.09-0.054-0.189-0.099-0.297-0.135s-0.207-0.099-0.297-0.189
	c-0.09-0.054-0.18-0.104-0.27-0.148c-0.09-0.045-0.198-0.095-0.324-0.148c-0.126-0.036-0.243-0.085-0.351-0.149
	c-0.108-0.062-0.234-0.112-0.378-0.148c-0.09-0.036-0.189-0.072-0.297-0.108c-0.108-0.036-0.207-0.072-0.297-0.108
	c-0.072-0.036-0.135-0.054-0.189-0.054c-0.037-0.036-0.108-0.062-0.216-0.081s-0.225-0.031-0.351-0.041s-0.252-0.014-0.378-0.014
	s-0.225,0.009-0.297,0.027c-0.09,0.037-0.185,0.063-0.284,0.081c-0.099,0.018-0.211,0.054-0.337,0.108
	c-0.126,0.037-0.243,0.081-0.351,0.135c-0.108,0.054-0.216,0.108-0.324,0.162c-0.09,0.072-0.189,0.14-0.297,0.202
	c-0.108,0.063-0.216,0.14-0.324,0.229c-0.054,0.054-0.113,0.117-0.176,0.189c-0.063,0.072-0.112,0.153-0.148,0.243
	c-0.018,0.018-0.027,0.032-0.027,0.041c0,0.009-0.009,0.023-0.027,0.041c-0.108,0.198-0.189,0.378-0.243,0.54
	c-0.054,0.162-0.081,0.369-0.081,0.621v0.216c0,0.162,0.045,0.364,0.135,0.607c0.09,0.243,0.211,0.482,0.364,0.715
	c0.153,0.234,0.319,0.432,0.5,0.594c0.18,0.162,0.369,0.243,0.567,0.243c0.036,0,0.063,0.004,0.081,0.013
	c0.018,0.009,0.045,0.014,0.081,0.014h0.081h0.216c0.09,0,0.216,0,0.378,0c0.162,0,0.324-0.018,0.486-0.054
	c0.018,0,0.031-0.004,0.041-0.013c0.009-0.009,0.022-0.014,0.041-0.014c0.036-0.018,0.063-0.027,0.081-0.027
	c0.018,0,0.036-0.009,0.054-0.027c0.036,0,0.072-0.004,0.108-0.013c0.036-0.009,0.081-0.014,0.135-0.014
	c0.144,0,0.261,0.045,0.351,0.135c0.09,0.072,0.144,0.189,0.162,0.351c0.018,0.162,0.036,0.261,0.054,0.297v0.189l-0.108,0.135
	c-0.18,0.18-0.405,0.297-0.675,0.351c-0.162,0.036-0.351,0.063-0.567,0.081h-0.486h-0.135h-0.054c-0.234,0-0.495-0.027-0.783-0.081
	c-0.288-0.09-0.531-0.216-0.729-0.378c-0.126-0.09-0.243-0.189-0.351-0.297c-0.108-0.108-0.226-0.225-0.351-0.351
	c-0.288-0.288-0.509-0.648-0.662-1.08c-0.153-0.432-0.229-0.854-0.229-1.269v-0.27v-0.216c0-0.216,0.031-0.441,0.094-0.675
	c0.063-0.233,0.14-0.468,0.229-0.702c0.108-0.198,0.225-0.392,0.351-0.581s0.279-0.374,0.459-0.554
	c0.036-0.036,0.068-0.058,0.095-0.067c0.027-0.009,0.058-0.031,0.094-0.067c0.072-0.054,0.144-0.108,0.216-0.162
	c0.072-0.054,0.153-0.108,0.243-0.162c0.036-0.018,0.117-0.058,0.243-0.122c0.126-0.062,0.266-0.13,0.418-0.202
	s0.288-0.135,0.405-0.189c0.117-0.054,0.193-0.081,0.229-0.081c0.09-0.018,0.202-0.041,0.337-0.067
	c0.135-0.027,0.427-0.05,0.877-0.068c0.108,0,0.189,0,0.243,0c0.054,0,0.125,0.009,0.216,0.027c0.072,0,0.18,0.018,0.324,0.054
	c0.144,0.018,0.333,0.081,0.567,0.189c0.162,0.09,0.337,0.162,0.526,0.216c0.189,0.054,0.409,0.126,0.662,0.216
	c0.09,0.054,0.175,0.104,0.256,0.148c0.081,0.045,0.148,0.086,0.203,0.122c0.09,0.036,0.18,0.077,0.27,0.122
	c0.09,0.045,0.189,0.085,0.297,0.122c0.036,0.036,0.095,0.072,0.175,0.108c0.081,0.036,0.266,0.126,0.554,0.27
	c0.144,0.072,0.274,0.14,0.392,0.202c0.117,0.063,0.22,0.122,0.311,0.176c0.072,0.054,0.157,0.117,0.256,0.189
	c0.099,0.072,0.193,0.126,0.284,0.162c0.036,0.018,0.099,0,0.189-0.054c0.036-0.036,0.09-0.081,0.162-0.135
	c0.09-0.072,0.243-0.198,0.459-0.378c0.071-0.054,0.139-0.108,0.202-0.162c0.063-0.054,0.167-0.126,0.311-0.216
	c0.126-0.09,0.315-0.211,0.567-0.364c0.252-0.153,0.522-0.301,0.81-0.445c0.288-0.144,0.581-0.284,0.877-0.419
	c0.297-0.135,0.562-0.238,0.797-0.31c0.396-0.09,0.841-0.167,1.336-0.229c0.495-0.063,0.994-0.004,1.499,0.175
	c0.198,0.072,0.373,0.14,0.526,0.203c0.153,0.063,0.337,0.202,0.554,0.418c0.09,0.09,0.17,0.193,0.243,0.311
	c0.072,0.117,0.135,0.229,0.189,0.337c0.054,0.108,0.108,0.221,0.162,0.337c0.054,0.117,0.09,0.256,0.108,0.418V25.786z
	 M75.544,25.731c0-0.125-0.027-0.247-0.081-0.364c-0.054-0.117-0.117-0.238-0.189-0.364c-0.09-0.054-0.135-0.09-0.135-0.108
	c0-0.018-0.045-0.054-0.135-0.108c-0.126-0.054-0.279-0.108-0.459-0.162c-0.18-0.054-0.36-0.081-0.54-0.081h-0.081h-0.027
	c-0.054,0.019-0.104,0.027-0.149,0.027s-0.085,0-0.121,0h-0.054c-0.198,0.036-0.437,0.085-0.715,0.148
	c-0.279,0.063-0.482,0.113-0.608,0.148c-0.108,0.036-0.189,0.072-0.243,0.108c-0.054,0.037-0.126,0.072-0.216,0.108l-0.054,0.027
	c-0.198,0.09-0.383,0.189-0.554,0.297c-0.171,0.108-0.355,0.207-0.553,0.297c-0.126,0.126-0.275,0.234-0.446,0.324
	c-0.171,0.09-0.329,0.207-0.472,0.351c-0.037,0.036-0.081,0.067-0.135,0.094c-0.054,0.027-0.117,0.077-0.189,0.148
	c-0.018,0.018-0.036,0.037-0.054,0.054c-0.019,0.018,0,0.054,0.054,0.108c0.036,0.018,0.072,0.045,0.108,0.081
	c0.252,0.108,0.459,0.185,0.621,0.229s0.396,0.113,0.702,0.203c0.09,0.036,0.184,0.063,0.283,0.081s0.203,0.045,0.311,0.081
	c0.09,0.019,0.176,0.032,0.257,0.041c0.081,0.009,0.175,0.014,0.283,0.014c0.306,0.072,0.617,0.081,0.932,0.027
	c0.314-0.054,0.625-0.108,0.932-0.162c0.18-0.036,0.346-0.099,0.5-0.189c0.152-0.09,0.301-0.18,0.445-0.27
	c0.198-0.18,0.36-0.347,0.486-0.5S75.472,26.038,75.544,25.731z"/>
<path stroke="#000000" stroke-width="0.25" d="M85.696,33.778c0.036,0.072,0.031,0.216-0.014,0.432
	c-0.045,0.216-0.104,0.455-0.175,0.716c-0.072,0.261-0.145,0.5-0.216,0.715s-0.117,0.36-0.135,0.432
	c-0.072,0.234-0.144,0.45-0.216,0.648c-0.072,0.198-0.145,0.396-0.216,0.594c-0.072,0.199-0.135,0.378-0.189,0.54
	c-0.018,0.037-0.036,0.077-0.054,0.122c-0.019,0.045-0.037,0.086-0.054,0.122l-0.054,0.162c-0.144,0.36-0.283,0.707-0.418,1.04
	c-0.135,0.333-0.239,0.571-0.311,0.715c-0.09,0.162-0.18,0.333-0.27,0.513s-0.144,0.279-0.162,0.297
	c-0.216,0.342-0.428,0.679-0.635,1.013c-0.207,0.332-0.329,0.508-0.364,0.526l-0.324,0.405c-0.234,0.216-0.477,0.404-0.729,0.566
	c-0.234,0.145-0.45,0.243-0.648,0.297c-0.288,0.108-0.63,0.117-1.026,0.027c-0.108-0.036-0.207-0.072-0.297-0.107
	c-0.09-0.037-0.171-0.068-0.243-0.096c-0.072-0.026-0.126-0.059-0.162-0.094c-0.144-0.107-0.288-0.27-0.432-0.486
	c-0.144-0.216-0.233-0.459-0.27-0.729c0-0.055-0.004-0.1-0.013-0.135c-0.009-0.037-0.014-0.072-0.014-0.108v-0.026
	c-0.036-0.253-0.044-0.482-0.027-0.689c0.018-0.207,0.036-0.418,0.054-0.634c-0.018,0.018-0.013-0.09,0.014-0.324
	c0.027-0.233,0.059-0.432,0.095-0.594c0.09-0.684,0.207-1.377,0.351-2.079c0.144-0.702,0.279-1.449,0.405-2.241l0.27-1.323
	c0.018-0.09,0.036-0.184,0.054-0.284c0.018-0.099,0.036-0.193,0.054-0.283l0.567-2.7c0-0.054,0.009-0.09,0.027-0.108
	c0-0.054,0.013-0.104,0.041-0.148c0.027-0.045,0.04-0.085,0.04-0.122c0.054-0.27,0.085-0.441,0.095-0.513
	c0.009-0.071,0.018-0.125,0.027-0.162c0.009-0.036,0.022-0.099,0.041-0.189c0.018-0.09,0.072-0.27,0.162-0.54l0.189-0.864
	l0.216-0.999l0.189-0.756c0-0.036,0.009-0.085,0.027-0.148c0.018-0.063,0.036-0.112,0.054-0.148
	c0.054-0.216,0.104-0.409,0.149-0.581c0.044-0.171,0.094-0.346,0.148-0.526c0.072-0.216,0.18-0.463,0.324-0.743
	c0.144-0.279,0.261-0.49,0.351-0.634c0.018-0.036,0.036-0.068,0.054-0.095c0.018-0.027,0.036-0.058,0.054-0.095l0.297-0.378
	l0.486-0.459c0.036-0.036,0.112-0.099,0.229-0.189c0.117-0.09,0.274-0.135,0.473-0.135c0.198,0.018,0.333,0.072,0.405,0.162
	c0.072,0.09,0.125,0.162,0.162,0.216V22.6c0.054,0.18,0.058,0.329,0.013,0.446s-0.094,0.211-0.148,0.283
	c-0.054,0.054-0.135,0.117-0.243,0.189c-0.126,0.072-0.243,0.18-0.351,0.324c-0.072,0.144-0.158,0.266-0.257,0.364
	c-0.099,0.099-0.193,0.229-0.283,0.392c-0.018,0.036-0.041,0.085-0.067,0.148c-0.027,0.063-0.05,0.122-0.068,0.176
	c-0.018,0.054-0.045,0.099-0.081,0.135c-0.036,0.036-0.054,0.072-0.054,0.108c0,0.054-0.018,0.153-0.054,0.297l-0.351,1.404
	c-0.072,0.324-0.13,0.581-0.175,0.77s-0.085,0.355-0.122,0.5s-0.072,0.297-0.108,0.459c-0.036,0.162-0.081,0.383-0.135,0.662
	c-0.054,0.279-0.131,0.639-0.229,1.08c-0.1,0.441-0.221,1.013-0.365,1.715c-0.036,0.252-0.077,0.495-0.122,0.729
	s-0.094,0.477-0.148,0.729c-0.054,0.18-0.099,0.351-0.135,0.513c-0.037,0.162-0.072,0.324-0.108,0.486
	c-0.036,0.162-0.059,0.324-0.067,0.486c-0.009,0.162-0.032,0.297-0.067,0.405c-0.018,0.037-0.032,0.081-0.041,0.135
	c-0.009,0.054-0.023,0.099-0.041,0.135l-0.081,0.405c0,0.018-0.009,0.09-0.027,0.216c-0.018,0.126-0.045,0.234-0.081,0.324
	c-0.036,0.234-0.077,0.468-0.122,0.702c-0.045,0.234-0.085,0.478-0.122,0.729c-0.036,0.108-0.054,0.216-0.054,0.324
	c0,0.036-0.018,0.126-0.054,0.27c-0.036,0.378-0.094,0.792-0.175,1.242s-0.122,0.881-0.122,1.296c0,0.108,0.004,0.22,0.013,0.337
	s0.014,0.203,0.014,0.256c0,0.072,0.027,0.145,0.081,0.217c0.036,0.054,0.085,0.104,0.148,0.148s0.148,0.076,0.256,0.094
	c0.144,0.037,0.266,0.031,0.365-0.013c0.099-0.046,0.175-0.086,0.229-0.122c0.09-0.09,0.18-0.193,0.27-0.311
	c0.09-0.117,0.18-0.221,0.27-0.311c0.125-0.197,0.274-0.427,0.445-0.688c0.171-0.261,0.311-0.481,0.418-0.662
	c0.108-0.18,0.225-0.392,0.351-0.634c0.126-0.243,0.243-0.481,0.351-0.716c0.108-0.233,0.234-0.513,0.378-0.837
	c0.126-0.252,0.252-0.549,0.378-0.891s0.252-0.702,0.378-1.08s0.239-0.751,0.338-1.121c0.099-0.369,0.193-0.697,0.283-0.985
	c0.09-0.306,0.279-0.463,0.567-0.473C85.309,33.377,85.534,33.508,85.696,33.778z"/>
<path stroke="#000000" stroke-width="0.25" d="M94.957,33.724c0.036,0.072,0.041,0.18,0.014,0.324
	c-0.027,0.144-0.059,0.292-0.095,0.445c-0.036,0.153-0.077,0.302-0.122,0.445c-0.045,0.145-0.067,0.252-0.067,0.324
	c-0.054,0.234-0.117,0.45-0.189,0.648c-0.054,0.18-0.117,0.369-0.189,0.567c-0.072,0.198-0.135,0.378-0.189,0.54
	c-0.018,0.037-0.045,0.108-0.081,0.216l-0.054,0.162c-0.36,0.774-0.675,1.391-0.945,1.85s-0.459,0.743-0.567,0.851L92.122,40.5
	c-0.126,0.126-0.243,0.234-0.351,0.324c-0.108,0.09-0.225,0.18-0.351,0.27c-0.108,0.054-0.216,0.104-0.324,0.149
	s-0.216,0.085-0.324,0.121c-0.288,0.107-0.63,0.117-1.026,0.027c-0.108-0.037-0.207-0.072-0.297-0.108
	c-0.09-0.036-0.171-0.067-0.243-0.095c-0.072-0.027-0.126-0.059-0.162-0.094c-0.144-0.108-0.288-0.27-0.432-0.486
	c-0.145-0.216-0.234-0.459-0.27-0.729c-0.019-0.036-0.027-0.117-0.027-0.243c-0.018-0.216-0.022-0.409-0.013-0.581
	c0.009-0.171,0.031-0.364,0.067-0.581l-0.054,0.054c-0.306,0.108-0.612,0.221-0.918,0.337c-0.306,0.117-0.63,0.175-0.972,0.175
	c-0.342,0-0.693-0.081-1.053-0.243c-0.36-0.162-0.729-0.459-1.107-0.891c-0.018-0.018-0.027-0.031-0.027-0.041
	c0-0.009-0.009-0.022-0.027-0.041c-0.036-0.09-0.077-0.193-0.122-0.311c-0.045-0.117-0.067-0.247-0.067-0.392
	c-0.054-0.54-0.027-1.165,0.081-1.876c0.108-0.711,0.261-1.363,0.459-1.958l0.351-1.485c0.036-0.125,0.072-0.301,0.108-0.526
	s0.072-0.409,0.108-0.554c0.018-0.054,0.045-0.175,0.081-0.364s0.099-0.355,0.189-0.5c0.054-0.09,0.148-0.171,0.284-0.243
	c0.135-0.072,0.265-0.125,0.392-0.162h0.081c0.216,0.018,0.351,0.072,0.405,0.162c0.054,0.09,0.099,0.18,0.135,0.27v0.027
	c0.036,0.037,0.045,0.095,0.027,0.176c-0.018,0.081-0.027,0.14-0.027,0.175c-0.108,0.378-0.234,0.882-0.378,1.512
	c0,0.018-0.004,0.036-0.013,0.054c-0.009,0.019-0.014,0.037-0.014,0.054c0,0.018,0,0.045,0,0.081s-0.018,0.117-0.054,0.243
	c-0.036,0.198-0.077,0.391-0.121,0.58c-0.045,0.189-0.086,0.392-0.122,0.608c0,0.036-0.009,0.081-0.027,0.135
	s-0.036,0.108-0.054,0.162c-0.018,0.09-0.059,0.274-0.122,0.553c-0.063,0.279-0.14,0.626-0.229,1.04v0.027
	c0,0.036-0.004,0.067-0.014,0.094s-0.013,0.059-0.013,0.095c0,0.144-0.014,0.229-0.041,0.256s-0.041,0.113-0.041,0.256v0.27
	c-0.018,0.415,0.099,0.725,0.351,0.932c0.252,0.207,0.549,0.311,0.891,0.311c0.288,0,0.544-0.072,0.77-0.216
	c0.225-0.144,0.423-0.324,0.594-0.54c0.171-0.216,0.314-0.455,0.432-0.716c0.117-0.261,0.22-0.517,0.311-0.77
	c0.018-0.054,0.067-0.171,0.148-0.351c0.081-0.18,0.166-0.495,0.256-0.945c0.018-0.072,0.045-0.162,0.081-0.27
	c0.018-0.108,0.054-0.265,0.108-0.473c0.054-0.207,0.112-0.427,0.176-0.661c0.062-0.234,0.125-0.45,0.189-0.648
	c0.062-0.198,0.112-0.351,0.148-0.459c0.018-0.09,0.036-0.176,0.054-0.257s0.045-0.202,0.081-0.364
	c0.018-0.036,0.027-0.077,0.027-0.122s0.009-0.085,0.027-0.122c0.018-0.036,0.027-0.081,0.027-0.135
	c0-0.054,0.018-0.099,0.054-0.135c0.018-0.144,0.09-0.288,0.216-0.432c0.09-0.09,0.166-0.157,0.229-0.202
	c0.063-0.045,0.148-0.068,0.256-0.068c0.072,0,0.13,0.009,0.176,0.027c0.044,0.018,0.085,0.027,0.122,0.027l0.027,0.027
	c0.108,0.037,0.211,0.113,0.311,0.229c0.099,0.118,0.122,0.284,0.067,0.5c0,0.037-0.009,0.095-0.027,0.176
	c-0.018,0.081-0.072,0.248-0.162,0.5c-0.036,0.036-0.072,0.144-0.108,0.324c-0.036,0.18-0.081,0.342-0.135,0.486
	c-0.018,0.036-0.027,0.072-0.027,0.108s-0.009,0.072-0.027,0.108c-0.018,0.036-0.027,0.094-0.027,0.175s-0.045,0.248-0.135,0.5
	c-0.018,0.054-0.041,0.145-0.067,0.27c-0.027,0.126-0.041,0.216-0.041,0.27c-0.018,0.037-0.041,0.145-0.067,0.324
	c-0.027,0.18-0.086,0.441-0.176,0.783c-0.036,0.162-0.094,0.388-0.175,0.675c-0.081,0.288-0.158,0.585-0.229,0.891l-0.162,0.729
	c-0.018,0.09-0.036,0.225-0.054,0.405c-0.018,0.18-0.054,0.414-0.108,0.702c-0.054,0.18-0.085,0.347-0.094,0.5
	c-0.009,0.153-0.023,0.329-0.041,0.526c0,0.252,0.018,0.45,0.054,0.594c0.018,0.072,0.045,0.145,0.081,0.216
	c0.036,0.054,0.081,0.108,0.135,0.162c0.054,0.054,0.135,0.09,0.243,0.108c0.162,0.018,0.288,0.004,0.378-0.041
	s0.162-0.085,0.216-0.122c0.108-0.09,0.211-0.193,0.311-0.311c0.099-0.117,0.193-0.22,0.283-0.311
	c0.144-0.198,0.292-0.436,0.446-0.715c0.152-0.279,0.274-0.508,0.364-0.688c0.342-0.63,0.616-1.246,0.824-1.85
	c0.207-0.603,0.409-1.255,0.607-1.958c0.036-0.162,0.108-0.292,0.216-0.392c0.108-0.099,0.229-0.162,0.365-0.189
	c0.135-0.027,0.265-0.013,0.392,0.041C94.758,33.508,94.866,33.598,94.957,33.724z"/>
<path stroke="#000000" stroke-width="0.25" d="M106.35,33.643c0.054,0.126,0.072,0.252,0.054,0.378c0,0.037-0.014,0.108-0.041,0.216
	s-0.063,0.225-0.108,0.351c-0.045,0.126-0.081,0.248-0.108,0.364c-0.027,0.117-0.041,0.185-0.041,0.203
	c-0.037,0.324-0.153,0.693-0.351,1.107c-0.198,0.414-0.387,0.747-0.567,0.999c-0.252,0.396-0.536,0.725-0.851,0.985
	c-0.315,0.261-0.526,0.428-0.635,0.5c-0.18,0.108-0.36,0.203-0.54,0.284c-0.18,0.081-0.351,0.158-0.513,0.229
	c-0.216,0.09-0.41,0.162-0.581,0.216c-0.171,0.054-0.302,0.09-0.392,0.108c-0.234,0.072-0.463,0.122-0.688,0.148
	c-0.225,0.027-0.437,0.041-0.634,0.041c-0.018,0.037-0.032,0.072-0.041,0.108c-0.009,0.036-0.023,0.072-0.041,0.108
	c-0.09,0.144-0.167,0.283-0.229,0.418c-0.063,0.135-0.131,0.274-0.203,0.418c-0.09,0.216-0.198,0.414-0.324,0.594
	c-0.037,0.091-0.086,0.167-0.149,0.229s-0.13,0.131-0.202,0.203c-0.126,0.125-0.252,0.252-0.378,0.377
	c-0.126,0.127-0.289,0.234-0.486,0.324c-0.072,0.055-0.148,0.104-0.229,0.148s-0.167,0.096-0.256,0.148
	c-0.145,0.09-0.288,0.148-0.432,0.176s-0.288,0.059-0.432,0.095c-0.036,0.018-0.077,0.026-0.121,0.026
	c-0.045,0-0.086,0.01-0.122,0.027c-0.145,0.036-0.288,0.059-0.432,0.068c-0.144,0.008-0.297,0.014-0.459,0.014h-0.351
	c-0.216-0.037-0.459-0.091-0.729-0.162c-0.27-0.072-0.513-0.181-0.729-0.324c-0.432-0.307-0.796-0.635-1.093-0.986
	c-0.297-0.351-0.455-0.841-0.473-1.471c0-0.036,0.004-0.076,0.014-0.121c0.009-0.045,0.013-0.085,0.013-0.122
	c0.018-0.27,0.049-0.585,0.095-0.945c0.044-0.36,0.099-0.724,0.162-1.093c0.062-0.369,0.135-0.72,0.216-1.053
	c0.081-0.333,0.157-0.625,0.229-0.877c0.125-0.468,0.229-0.909,0.311-1.323s0.211-0.945,0.392-1.593
	c0.018-0.072,0.076-0.311,0.175-0.715c0.099-0.405,0.211-0.851,0.337-1.336c0.126-0.486,0.243-0.945,0.351-1.377
	c0.108-0.432,0.18-0.702,0.216-0.81c0.09-0.378,0.153-0.635,0.189-0.77c0.036-0.135,0.071-0.261,0.108-0.378
	c0.036-0.117,0.09-0.292,0.162-0.527c0.071-0.233,0.189-0.63,0.351-1.188c0.126-0.414,0.301-0.765,0.527-1.053
	c0.225-0.288,0.382-0.486,0.472-0.594c0.09-0.072,0.185-0.139,0.284-0.202c0.099-0.063,0.22-0.095,0.364-0.095
	c0.162,0,0.288,0.045,0.378,0.135c0.09,0.09,0.152,0.153,0.189,0.189c0.018,0.054,0.027,0.135,0.027,0.243s-0.045,0.234-0.135,0.378
	c-0.036,0.09-0.121,0.216-0.256,0.378c-0.135,0.162-0.239,0.306-0.311,0.432c-0.054,0.108-0.117,0.234-0.189,0.378
	c-0.072,0.145-0.126,0.279-0.162,0.405c-0.09,0.216-0.211,0.621-0.364,1.215c-0.153,0.594-0.315,1.233-0.486,1.917
	c-0.171,0.685-0.338,1.35-0.5,1.998c-0.162,0.648-0.289,1.116-0.378,1.404c-0.09,0.396-0.202,0.874-0.337,1.431
	c-0.135,0.558-0.256,1.071-0.364,1.539c-0.162,0.63-0.297,1.247-0.405,1.85s-0.18,1.192-0.216,1.769
	c-0.036,0.378,0.018,0.711,0.162,0.999c0.144,0.288,0.342,0.512,0.594,0.674c0.144,0.09,0.288,0.172,0.432,0.244
	c0.144,0.071,0.387,0.107,0.729,0.107c0.342,0,0.648-0.023,0.918-0.067c0.27-0.046,0.585-0.167,0.945-0.364
	c0.09-0.037,0.167-0.091,0.229-0.162c0.063-0.072,0.13-0.135,0.203-0.189c0.18-0.144,0.328-0.32,0.446-0.526
	c0.117-0.207,0.238-0.436,0.364-0.688c-0.162-0.018-0.329-0.036-0.5-0.054c-0.171-0.018-0.256-0.036-0.256-0.054
	c-0.037,0-0.077-0.004-0.122-0.014c-0.045-0.009-0.086-0.013-0.122-0.013c-0.18,0-0.36-0.045-0.54-0.135
	c-0.252-0.072-0.477-0.166-0.675-0.284c-0.198-0.117-0.415-0.283-0.648-0.5c-0.072-0.071-0.118-0.125-0.135-0.162
	c-0.09-0.054-0.135-0.09-0.135-0.108c-0.072-0.054-0.185-0.198-0.338-0.432s-0.256-0.423-0.31-0.567
	c-0.037-0.144-0.068-0.347-0.095-0.608c-0.027-0.261,0.004-0.544,0.095-0.85c0-0.036,0.009-0.081,0.027-0.135
	c0.018-0.054,0.036-0.099,0.054-0.135c0.126-0.324,0.342-0.648,0.648-0.972c0.09-0.108,0.184-0.198,0.283-0.27
	c0.099-0.072,0.203-0.153,0.311-0.243c0.09-0.054,0.185-0.103,0.284-0.148c0.099-0.044,0.193-0.094,0.283-0.148
	c0.18-0.072,0.355-0.112,0.527-0.122c0.17-0.009,0.346-0.022,0.526-0.041c0.396,0,0.77,0.072,1.121,0.216
	c0.351,0.144,0.657,0.347,0.918,0.607c0.261,0.261,0.468,0.581,0.621,0.958s0.22,0.792,0.203,1.242
	c-0.018,0.199-0.027,0.41-0.027,0.635s-0.054,0.553-0.162,0.985c0.288-0.054,0.576-0.135,0.864-0.243
	c0-0.018,0.076-0.05,0.229-0.095c0.152-0.045,0.328-0.104,0.526-0.175c0.306-0.108,0.603-0.279,0.891-0.513
	c0.018-0.018,0.13-0.117,0.337-0.297c0.207-0.18,0.409-0.423,0.607-0.729c0.144-0.198,0.252-0.409,0.324-0.635
	c0.071-0.225,0.144-0.454,0.216-0.688c0-0.018,0.018-0.085,0.054-0.203c0.036-0.117,0.076-0.233,0.121-0.351
	s0.081-0.229,0.108-0.338c0.027-0.108,0.04-0.17,0.04-0.189c0.072-0.233,0.162-0.405,0.27-0.513
	c0.162-0.216,0.378-0.261,0.648-0.135C106.143,33.427,106.26,33.517,106.35,33.643z M98.277,38.503
	c0.054,0.036,0.198,0.067,0.432,0.094c0.233,0.027,0.468,0.059,0.702,0.095c0.108-0.306,0.18-0.657,0.216-1.053
	c0.036-0.396,0.036-0.738,0-1.026c-0.037-0.108-0.059-0.207-0.068-0.297c-0.009-0.09-0.031-0.162-0.067-0.216
	c-0.036-0.108-0.135-0.225-0.297-0.351c-0.234-0.198-0.491-0.351-0.77-0.459c-0.279-0.108-0.59-0.135-0.932-0.081
	c-0.288,0.108-0.522,0.27-0.702,0.486c-0.18,0.216-0.315,0.423-0.405,0.621c-0.072,0.234-0.063,0.486,0.027,0.756
	c0.036,0.036,0.063,0.085,0.081,0.148c0.018,0.063,0.045,0.113,0.081,0.148c0.018,0.036,0.041,0.077,0.067,0.122
	c0.027,0.045,0.059,0.085,0.095,0.122c0.036,0.036,0.063,0.063,0.081,0.081c0.018,0.018,0.036,0.045,0.054,0.081
	c0.216,0.18,0.427,0.333,0.634,0.459C97.714,38.359,97.971,38.449,98.277,38.503z"/>
<g>
	<path stroke="#000000" stroke-width="0.25" d="M61.62,8.984c0.035,0.054,0.058,0.14,0.067,0.256
		c0.009,0.117,0.004,0.212-0.014,0.284c0,0.054-0.022,0.167-0.067,0.337s-0.077,0.283-0.095,0.337
		c-0.054,0.342-0.135,0.698-0.243,1.066c-0.107,0.369-0.229,0.715-0.364,1.04s-0.266,0.621-0.392,0.891s-0.226,0.468-0.297,0.594
		c-0.324,0.558-0.733,1.112-1.229,1.661s-0.923,0.994-1.282,1.336c-0.198,0.198-0.369,0.365-0.514,0.5
		c-0.144,0.135-0.252,0.22-0.323,0.256c-0.577,0.414-1.13,0.756-1.661,1.026s-0.923,0.45-1.175,0.54
		c-0.126,0.054-0.301,0.112-0.526,0.175c-0.225,0.063-0.454,0.122-0.688,0.175c-0.233,0.054-0.441,0.104-0.621,0.149
		c-0.18,0.044-0.288,0.067-0.323,0.067c-0.091,0.018-0.172,0.036-0.243,0.054c-0.072,0.018-0.153,0.036-0.243,0.054
		c-0.288,0.486-0.626,0.936-1.013,1.35c-0.387,0.414-0.877,0.747-1.472,0.999c-0.198,0.09-0.378,0.135-0.54,0.135
		c-0.161,0-0.378,0.018-0.647,0.054h-0.027c-0.09,0-0.207-0.023-0.351-0.067c-0.145-0.045-0.234-0.077-0.271-0.095H47.04
		l-0.055-0.054c-0.036-0.018-0.072-0.045-0.107-0.081c-0.055-0.054-0.104-0.108-0.148-0.162c-0.046-0.054-0.086-0.126-0.122-0.216
		L46.5,21.404c-0.036-0.054-0.059-0.113-0.067-0.176c-0.01-0.063-0.014-0.112-0.014-0.148s-0.01-0.081-0.027-0.135
		c-0.018-0.054-0.018-0.117,0-0.189c0.018-0.019,0.027-0.072,0.027-0.162c0.071-0.342,0.233-0.685,0.485-1.026
		c0.252-0.342,0.549-0.585,0.892-0.729c0.09-0.037,0.306-0.108,0.647-0.216s0.72-0.162,1.135-0.162h0.891
		c0.036-0.054,0.062-0.104,0.081-0.148c0.018-0.045,0.036-0.094,0.054-0.148c0.144-0.36,0.238-0.761,0.283-1.201
		c0.045-0.441,0.077-0.734,0.095-0.878v-0.054c-0.018-0.018-0.026-0.036-0.026-0.054v-0.081c0-0.324-0.027-0.594-0.081-0.81
		l-0.189-0.891l-0.162-0.459c-0.126-0.306-0.293-0.594-0.499-0.864c-0.207-0.27-0.419-0.531-0.635-0.783
		c-0.019-0.036-0.04-0.068-0.067-0.095s-0.077-0.104-0.148-0.229c-0.145-0.216-0.279-0.405-0.405-0.567
		c-0.145-0.234-0.274-0.554-0.392-0.958c-0.117-0.405-0.148-0.806-0.095-1.202c0.019-0.233,0.1-0.463,0.243-0.688
		c0.145-0.225,0.328-0.418,0.554-0.581c0.225-0.162,0.481-0.283,0.77-0.364s0.576-0.095,0.864-0.041
		c0.63,0.09,1.075,0.283,1.336,0.581c0.261,0.297,0.409,0.661,0.446,1.093v0.108c0,0.234-0.06,0.405-0.176,0.513
		c-0.117,0.108-0.243,0.175-0.378,0.203c-0.135,0.027-0.266,0.027-0.392,0c-0.126-0.027-0.216-0.068-0.271-0.122
		c-0.071-0.09-0.112-0.193-0.121-0.311c-0.01-0.117-0.022-0.211-0.041-0.284c-0.036-0.216-0.112-0.351-0.229-0.405
		s-0.193-0.072-0.229-0.054c-0.342,0-0.585,0.072-0.729,0.216c-0.145,0.144-0.216,0.32-0.216,0.526c0,0.207,0.049,0.423,0.148,0.648
		c0.099,0.225,0.211,0.428,0.337,0.607c0.09,0.108,0.162,0.207,0.217,0.297c0.054,0.09,0.125,0.189,0.216,0.297
		c0,0.018,0.054,0.09,0.162,0.216c0.107,0.126,0.238,0.297,0.392,0.513c0.152,0.216,0.306,0.472,0.459,0.77
		c0.152,0.297,0.283,0.607,0.392,0.931c0.09,0.198,0.148,0.342,0.175,0.432c0.027,0.09,0.05,0.171,0.067,0.243
		c0,0.054,0.018,0.117,0.055,0.189l0.081,0.324l0.054,0.513c0,0.036,0.004,0.072,0.014,0.108c0.009,0.037,0.014,0.072,0.014,0.108
		v0.054c0.018,0.306,0.018,0.585,0,0.837c-0.019,0.252-0.027,0.414-0.027,0.486c0,0.018-0.005,0.031-0.014,0.04
		s-0.005,0.031,0.014,0.068c-0.019,0.144-0.036,0.256-0.054,0.337c-0.019,0.081-0.037,0.157-0.055,0.229
		c-0.018,0.036-0.018,0.054,0,0.054s0.018,0.018,0,0.054c-0.036,0.072-0.072,0.144-0.107,0.216
		c-0.036,0.072-0.072,0.144-0.108,0.216c0.216-0.054,0.49-0.122,0.823-0.203s0.599-0.158,0.797-0.229
		c0.071-0.018,0.238-0.09,0.499-0.216c0.261-0.126,0.554-0.288,0.878-0.486c0.054-0.036,0.135-0.09,0.243-0.162
		c0.107-0.072,0.211-0.149,0.311-0.229c0.099-0.081,0.188-0.153,0.27-0.216s0.14-0.104,0.176-0.122
		c0.054-0.054,0.117-0.108,0.189-0.162c0.071-0.054,0.135-0.108,0.188-0.162c0.072-0.072,0.171-0.167,0.297-0.284
		c0.126-0.117,0.189-0.166,0.189-0.148c0.125-0.125,0.287-0.292,0.485-0.5c0.198-0.207,0.4-0.436,0.607-0.688
		c0.207-0.252,0.41-0.517,0.608-0.796c0.197-0.279,0.359-0.554,0.485-0.824c0.072-0.108,0.157-0.274,0.257-0.5
		c0.099-0.225,0.207-0.481,0.324-0.77c0.116-0.288,0.225-0.584,0.323-0.891c0.1-0.306,0.185-0.594,0.257-0.864
		c0.036-0.09,0.072-0.238,0.108-0.445c0.035-0.207,0.09-0.347,0.162-0.418c0.144-0.198,0.359-0.252,0.647-0.162
		C61.43,8.813,61.547,8.895,61.62,8.984z M49.55,19.973c0.071-0.072,0.117-0.135,0.135-0.189c-0.09,0-0.171,0-0.243,0
		s-0.153,0.009-0.243,0.027c-0.144,0.036-0.328,0.081-0.553,0.135C48.42,20,48.182,20.135,47.93,20.351
		c-0.019,0.036-0.045,0.072-0.081,0.108c-0.072,0.072-0.099,0.144-0.081,0.216v0.027c0,0.036,0.004,0.063,0.014,0.081
		c0.009,0.018,0.014,0.045,0.014,0.081c0.018,0.018,0.036,0.027,0.054,0.027s0.036,0.009,0.054,0.027
		c0.036,0,0.059,0.004,0.067,0.014c0.01,0.009,0.031,0.014,0.068,0.014c0.306,0,0.571-0.099,0.796-0.297S49.298,20.225,49.55,19.973
		z"/>
</g>
<g>
	<path stroke="#000000" stroke-width="0.25" d="M107.774,9.213c0.035,0.054,0.058,0.14,0.067,0.256
		c0.009,0.117,0.004,0.212-0.014,0.284c0,0.054-0.022,0.167-0.067,0.337s-0.077,0.283-0.095,0.337
		c-0.054,0.342-0.135,0.698-0.243,1.066c-0.107,0.369-0.229,0.715-0.364,1.04s-0.266,0.621-0.392,0.891s-0.226,0.468-0.297,0.594
		c-0.324,0.558-0.733,1.112-1.229,1.661s-0.923,0.994-1.282,1.336c-0.198,0.198-0.369,0.365-0.514,0.5
		c-0.144,0.135-0.252,0.22-0.323,0.256c-0.577,0.414-1.13,0.756-1.661,1.026s-0.923,0.45-1.175,0.54
		c-0.126,0.054-0.301,0.112-0.526,0.175c-0.225,0.063-0.454,0.122-0.688,0.175c-0.233,0.054-0.441,0.104-0.621,0.149
		c-0.18,0.044-0.288,0.067-0.323,0.067c-0.091,0.018-0.172,0.036-0.243,0.054c-0.072,0.018-0.153,0.036-0.243,0.054
		c-0.288,0.486-0.626,0.936-1.013,1.35c-0.387,0.414-0.877,0.747-1.472,0.999c-0.198,0.09-0.378,0.135-0.54,0.135
		c-0.161,0-0.378,0.018-0.647,0.054h-0.027c-0.09,0-0.207-0.023-0.351-0.067c-0.145-0.045-0.234-0.077-0.271-0.095h-0.026
		l-0.055-0.054c-0.036-0.018-0.072-0.045-0.107-0.081c-0.055-0.054-0.104-0.108-0.148-0.162c-0.046-0.054-0.086-0.126-0.122-0.216
		l-0.107-0.243c-0.036-0.054-0.059-0.113-0.067-0.176c-0.01-0.063-0.014-0.112-0.014-0.148s-0.01-0.081-0.027-0.135
		c-0.018-0.054-0.018-0.117,0-0.189c0.018-0.019,0.027-0.072,0.027-0.162c0.071-0.342,0.233-0.685,0.485-1.026
		c0.252-0.342,0.549-0.585,0.892-0.729c0.09-0.037,0.306-0.108,0.647-0.216s0.72-0.162,1.135-0.162h0.891
		c0.036-0.054,0.062-0.104,0.081-0.148c0.018-0.045,0.036-0.094,0.054-0.148c0.144-0.36,0.238-0.761,0.283-1.201
		c0.045-0.441,0.077-0.734,0.095-0.878V16.26c-0.018-0.018-0.026-0.036-0.026-0.054v-0.081c0-0.324-0.027-0.594-0.081-0.81
		l-0.189-0.891l-0.162-0.459c-0.126-0.306-0.293-0.594-0.499-0.864c-0.207-0.27-0.419-0.531-0.635-0.783
		c-0.019-0.036-0.04-0.068-0.067-0.095s-0.077-0.104-0.148-0.229c-0.145-0.216-0.279-0.405-0.405-0.567
		c-0.145-0.234-0.274-0.554-0.392-0.958c-0.117-0.405-0.148-0.806-0.095-1.202c0.019-0.233,0.1-0.463,0.243-0.688
		c0.145-0.225,0.328-0.418,0.554-0.581c0.225-0.162,0.481-0.283,0.77-0.364s0.576-0.095,0.864-0.041
		c0.63,0.09,1.075,0.283,1.336,0.581c0.261,0.297,0.409,0.661,0.446,1.093v0.108c0,0.234-0.06,0.405-0.176,0.513
		c-0.117,0.108-0.243,0.175-0.378,0.203c-0.135,0.027-0.266,0.027-0.392,0c-0.126-0.027-0.216-0.068-0.271-0.122
		c-0.071-0.09-0.112-0.193-0.121-0.311c-0.01-0.117-0.022-0.211-0.041-0.284c-0.036-0.216-0.112-0.351-0.229-0.405
		s-0.193-0.072-0.229-0.054c-0.342,0-0.585,0.072-0.729,0.216c-0.145,0.144-0.216,0.32-0.216,0.526c0,0.207,0.049,0.423,0.148,0.648
		c0.099,0.225,0.211,0.428,0.337,0.607c0.09,0.108,0.162,0.207,0.217,0.297c0.054,0.09,0.125,0.189,0.216,0.297
		c0,0.018,0.054,0.09,0.162,0.216c0.107,0.126,0.238,0.297,0.392,0.513c0.152,0.216,0.306,0.472,0.459,0.77
		c0.152,0.297,0.283,0.607,0.392,0.931c0.09,0.198,0.148,0.342,0.175,0.432c0.027,0.09,0.05,0.171,0.067,0.243
		c0,0.054,0.018,0.117,0.055,0.189l0.081,0.324l0.054,0.513c0,0.036,0.004,0.072,0.014,0.108c0.009,0.037,0.014,0.072,0.014,0.108
		v0.054c0.018,0.306,0.018,0.585,0,0.837c-0.019,0.252-0.027,0.414-0.027,0.486c0,0.018-0.005,0.031-0.014,0.04
		s-0.005,0.031,0.014,0.068c-0.019,0.144-0.036,0.256-0.054,0.337c-0.019,0.081-0.037,0.157-0.055,0.229
		c-0.018,0.036-0.018,0.054,0,0.054s0.018,0.018,0,0.054c-0.036,0.072-0.072,0.144-0.107,0.216
		c-0.036,0.072-0.072,0.144-0.108,0.216c0.216-0.054,0.49-0.122,0.823-0.203s0.599-0.158,0.797-0.229
		c0.071-0.018,0.238-0.09,0.499-0.216c0.261-0.126,0.554-0.288,0.878-0.486c0.054-0.036,0.135-0.09,0.243-0.162
		c0.107-0.072,0.211-0.149,0.311-0.229c0.099-0.081,0.188-0.153,0.27-0.216s0.14-0.104,0.176-0.122
		c0.054-0.054,0.117-0.108,0.189-0.162c0.071-0.054,0.135-0.108,0.188-0.162c0.072-0.072,0.171-0.167,0.297-0.284
		c0.126-0.117,0.189-0.166,0.189-0.148c0.125-0.125,0.287-0.292,0.485-0.5c0.198-0.207,0.4-0.436,0.607-0.688
		c0.207-0.252,0.41-0.517,0.608-0.796c0.197-0.279,0.359-0.554,0.485-0.824c0.072-0.108,0.157-0.274,0.257-0.5
		c0.099-0.225,0.207-0.481,0.324-0.77c0.116-0.288,0.225-0.584,0.323-0.891c0.1-0.306,0.185-0.594,0.257-0.864
		c0.036-0.09,0.072-0.238,0.108-0.445c0.035-0.207,0.09-0.347,0.162-0.418c0.144-0.198,0.359-0.252,0.647-0.162
		C107.585,9.042,107.702,9.123,107.774,9.213z M95.705,20.202c0.071-0.072,0.117-0.135,0.135-0.189c-0.09,0-0.171,0-0.243,0
		s-0.153,0.009-0.243,0.027c-0.144,0.036-0.328,0.081-0.553,0.135c-0.226,0.054-0.464,0.189-0.716,0.405
		c-0.019,0.036-0.045,0.072-0.081,0.108c-0.072,0.072-0.099,0.144-0.081,0.216v0.027c0,0.036,0.004,0.063,0.014,0.081
		c0.009,0.018,0.014,0.045,0.014,0.081c0.018,0.018,0.036,0.027,0.054,0.027s0.036,0.009,0.054,0.027
		c0.036,0,0.059,0.004,0.067,0.014c0.01,0.009,0.031,0.014,0.068,0.014c0.306,0,0.571-0.099,0.796-0.297
		S95.453,20.454,95.705,20.202z"/>
</g>
</svg>
