<?xml version="1.0" encoding="utf-8"?>
<!-- Generator: Adobe Illustrator 16.0.0, SVG Export Plug-In . SVG Version: 6.00 Build 0)  -->
<!DOCTYPE svg PUBLIC "-//W3C//DTD SVG 1.1//EN" "http://www.w3.org/Graphics/SVG/1.1/DTD/svg11.dtd">
<svg version="1.1" id="Layer_1" xmlns="http://www.w3.org/2000/svg" xmlns:xlink="http://www.w3.org/1999/xlink" x="0px" y="0px"
	 viewBox="0 0 196.027 191.879" enable-background="new 0 0 196.027 191.879"
	 xml:space="preserve">
<g>
	<g>
		<g>
			<path d="M9.406,90.215c-0.756-0.63-1.722-1.05-2.729-1.05c-0.756,0-1.764,0.44-1.764,1.323c0,0.923,1.113,1.281,1.827,1.512
				l1.05,0.315c2.205,0.65,3.905,1.764,3.905,4.325c0,1.575-0.378,3.192-1.638,4.262c-1.239,1.05-2.897,1.491-4.493,1.491
				c-1.995,0-3.947-0.672-5.564-1.806l1.764-3.317c1.029,0.902,2.247,1.638,3.653,1.638c0.966,0,1.995-0.483,1.995-1.596
				c0-1.156-1.617-1.554-2.499-1.806c-2.583-0.735-4.283-1.407-4.283-4.472c0-3.212,2.289-5.312,5.459-5.312
				c1.596,0,3.548,0.504,4.955,1.301L9.406,90.215z"/>
			<path d="M15.75,86.143h5.837c4.409,0,8.042,3.463,8.042,7.915c0,4.452-3.653,7.917-8.042,7.917H15.75V86.143z M19.865,98.488
				h0.924c2.457,0,4.556-1.344,4.556-4.431c0-2.834-1.869-4.43-4.514-4.43h-0.966V98.488z"/>
		</g>
	</g>
	<g>
		<g>
			<path d="M176.267,91.454c-0.84-1.134-2.204-1.743-3.611-1.743c-2.52,0-4.22,1.932-4.22,4.388c0,2.499,1.722,4.305,4.283,4.305
				c1.344,0,2.688-0.651,3.548-1.68v4.934c-1.364,0.42-2.352,0.735-3.632,0.735c-2.204,0-4.304-0.84-5.942-2.331
				c-1.742-1.574-2.54-3.632-2.54-5.983c0-2.164,0.819-4.241,2.331-5.795c1.553-1.596,3.8-2.562,6.025-2.562
				c1.322,0,2.541,0.294,3.758,0.797V91.454z"/>
			<path d="M184.941,99.223l-1.092,2.751h-4.367l6.089-15.831h4.493l5.963,15.831h-4.388l-1.029-2.751H184.941z M187.817,91.034
				h-0.041l-1.701,5.039h3.422L187.817,91.034z"/>
		</g>
	</g>
	<g>
		<path d="M111.632,74.896c3.851-3.746,6.177-9.162,6.177-14.525c0-3.187-0.709-6.123-1.922-9.058h-10.83
			c1.834,2.061,3.135,5.314,3.135,8.704c0,6.061-4.635,10.151-10.537,10.169c-5.915-0.005-10.563-4.103-10.563-10.172
			c0-3.389,1.301-6.643,3.135-8.704h-10.83c-1.213,2.936-1.923,5.871-1.923,9.059c0,5.364,2.327,10.779,6.177,14.525
			c2.536,2.469,5.662,4.15,9.032,4.991v23.152h-8.198v8.402h26.315v-8.402h-8.198V79.885
			C105.974,79.044,109.098,77.364,111.632,74.896z"/>
		<path d="M115.875,146.446h-10.83c1.835-2.061,3.135-5.313,3.135-8.703c0-6.061-4.635-10.152-10.537-10.17
			c-5.915,0.006-10.563,4.103-10.563,10.172c0,3.39,1.301,6.643,3.135,8.704h-10.83c-1.213-2.936-1.923-5.872-1.923-9.059
			c0-5.364,2.327-10.779,6.177-14.525c3.742-3.644,8.755-5.618,13.966-5.618l0.049-0.002c5.211,0,10.224,1.975,13.966,5.617
			c3.85,3.747,6.177,9.162,6.177,14.525C117.798,140.575,117.088,143.511,115.875,146.446z"/>
		<g>
			<path d="M49.014,75.219v10.83c2.061-1.834,5.314-3.135,8.704-3.135c6.061,0,10.152,4.635,10.17,10.537
				c-0.006,5.915-4.103,10.562-10.172,10.562c-3.39,0-6.643-1.3-8.704-3.135v10.83c2.936,1.213,5.872,1.923,9.059,1.923
				c5.364,0,10.779-2.327,14.525-6.177c3.644-3.742,5.618-8.755,5.618-13.966c0,0,0.002-0.033,0.002-0.049
				c0-5.211-1.975-10.224-5.618-13.966c-3.747-3.85-9.162-6.177-14.525-6.177C54.885,73.296,51.95,74.006,49.014,75.219z"/>
			<path d="M146.257,75.23v10.83c-2.061-1.834-5.313-3.135-8.703-3.135c-6.061,0-10.151,4.635-10.17,10.537
				c0.006,5.914,4.103,10.562,10.172,10.562c3.39,0,6.644-1.301,8.704-3.135v10.83c-2.936,1.213-5.871,1.923-9.059,1.923
				c-5.364,0-10.779-2.327-14.525-6.177c-3.644-3.742-5.618-8.756-5.618-13.967c0-0.017-0.002-0.033-0.002-0.033
				c0-5.228,1.975-10.241,5.618-13.982c3.746-3.85,9.161-6.177,14.525-6.177C140.386,73.308,143.321,74.018,146.257,75.23z"/>
		</g>
	</g>
	<g>
		<path d="M12.739,139.705l-1.893-3.873l11.619-5.68l-1.565-3.201l3.28-1.604l5.022,10.275l-3.28,1.604l-1.565-3.201L12.739,139.705
			z"/>
		<path d="M32.055,150.535l5.062-3.922l2.641,3.41l-13.116,10.158L24,156.773l5.375-4.164l-3.813-4.922l-5.375,4.162l-2.641-3.408
			l13.116-10.16l2.641,3.41l-5.062,3.92L32.055,150.535z"/>
		<path d="M43.824,158.498l-1.799,2.109l3.699,3.156l-2.371,2.777l-3.699-3.156l-1.856,2.176l3.9,3.328l-2.371,2.779l-7.181-6.127
			l10.769-12.621l7.181,6.127l-2.371,2.777L43.824,158.498z"/>
		<path d="M68.587,175.453c-0.317-1.445-1.361-2.613-2.707-3.215c-2.41-1.08-4.864,0.037-5.917,2.387
			c-1.071,2.389-0.199,4.855,2.251,5.953c1.285,0.576,2.849,0.529,4.114-0.086l-2.116,4.719c-1.485-0.184-2.564-0.305-3.789-0.854
			c-2.108-0.945-3.756-2.648-4.684-4.777c-0.991-2.252-0.872-4.562,0.136-6.812c0.927-2.068,2.602-3.705,4.713-4.543
			c2.17-0.859,4.733-0.82,6.862,0.135c1.265,0.566,2.304,1.371,3.252,2.375L68.587,175.453z"/>
		<path d="M89.455,182.887c-1.057,5.264-5.578,8.217-10.8,7.168c-5.221-1.049-8.251-5.518-7.194-10.783
			c0.988-4.92,5.997-7.504,10.679-6.564C86.821,173.648,90.443,177.967,89.455,182.887z M75.857,180.178
			c-0.563,2.805,1.097,5.27,3.621,5.777c2.524,0.508,5.007-1.127,5.571-3.932c0.451-2.244-1.209-4.709-3.733-5.217
			S76.308,177.934,75.857,180.178z"/>
		<path d="M95.897,175.129l4.235-0.309l4.003,8.598l2.908-9.102l4.279-0.312l3.709,16.361l-4.301,0.314l-1.902-9.436l-0.043,0.004
			l-3.276,9.812l-1.712,0.125l-4.491-9.246l-0.044,0.004l-0.687,9.623l-4.279,0.312L95.897,175.129z"/>
		<path d="M118.498,172.385l3.969-1.504l6.29,7.096l0.189-9.553l4.011-1.52l8.225,14.619l-4.031,1.529l-4.516-8.498l-0.041,0.016
			l-0.34,10.338l-1.604,0.607l-6.943-7.578l-0.041,0.016l2.089,9.418l-4.011,1.521L118.498,172.385z"/>
		<path d="M156.56,160.402c3.187,4.318,2.336,9.648-1.947,12.809c-4.284,3.162-9.628,2.402-12.815-1.916
			c-2.978-4.035-1.527-9.48,2.313-12.314S153.582,156.365,156.56,160.402z M145.422,168.648c1.697,2.301,4.638,2.729,6.709,1.199
			c2.07-1.527,2.529-4.463,0.831-6.764c-1.358-1.842-4.299-2.27-6.37-0.74C144.521,163.871,144.062,166.807,145.422,168.648z"/>
		<path d="M153.842,151.875l2.71-3.355l12.855,0.227l0.028-0.033l-7.893-6.373l2.709-3.355l12.908,10.424l-2.709,3.355l-12.873-0.24
			l-0.027,0.033l7.91,6.387l-2.71,3.355L153.842,151.875z"/>
		<path d="M173.665,129.875c-0.946,0.41-1.794,1.117-2.269,2.061c-0.355,0.707-0.418,1.857,0.408,2.273
			c0.864,0.436,1.723-0.438,2.275-0.998l0.789-0.834c1.646-1.758,3.49-2.824,5.887-1.619c1.475,0.742,2.811,1.857,3.219,3.541
			c0.399,1.654,0.031,3.414-0.721,4.908c-0.939,1.865-2.487,3.377-4.311,4.357l-2.274-3.213c1.33-0.539,2.591-1.332,3.254-2.648
			c0.454-0.904,0.487-2.096-0.555-2.619c-1.081-0.545-2.216,0.781-2.866,1.488c-1.904,2.07-3.334,3.348-6.203,1.902
			c-3.008-1.512-3.895-4.643-2.402-7.611c0.752-1.492,2.143-3.084,3.553-4.025L173.665,129.875z"/>
	</g>
	<g>
		<path d="M26.977,60.448l-1.831,3.902l-11.708-5.49l-1.513,3.226l-3.305-1.55l4.856-10.355l3.305,1.551l-1.513,3.225L26.977,60.448
			z"/>
		<path d="M28.061,39.995l-5.124-3.836l2.584-3.452l13.277,9.941l-2.584,3.451l-5.441-4.073l-3.731,4.982l5.441,4.074l-2.584,3.452
			l-13.277-9.94l2.584-3.452l5.124,3.836L28.061,39.995z"/>
		<path d="M36.572,27.152l1.834,2.078l3.645-3.217l2.417,2.737l-3.645,3.218l1.892,2.144l3.843-3.393l2.417,2.738l-7.076,6.245
			L30.922,27.266l7.077-6.244l2.416,2.738L36.572,27.152z"/>
		<path d="M66.567,11.152c-1.287-0.728-2.853-0.729-4.199-0.13c-2.412,1.073-3.217,3.646-2.17,5.997
			c1.064,2.392,3.481,3.387,5.933,2.296c1.286-0.572,2.295-1.767,2.681-3.119l2.102,4.723c-1.127,0.983-1.938,1.705-3.164,2.25
			c-2.11,0.939-4.477,1.029-6.679,0.3c-2.339-0.765-3.979-2.395-4.98-4.645c-0.921-2.07-1.022-4.408-0.237-6.539
			c0.807-2.19,2.546-4.07,4.676-5.019c1.266-0.563,2.557-0.801,3.937-0.837L66.567,11.152z"/>
		<path d="M90.467,8.083c0.987,5.275-2.102,9.702-7.334,10.681c-5.232,0.979-9.712-2.033-10.699-7.309
			c-0.922-4.93,2.755-9.198,7.448-10.075C84.574,0.503,89.545,3.153,90.467,8.083z M76.849,10.652
			c0.526,2.811,2.985,4.477,5.515,4.004c2.53-0.474,4.221-2.916,3.696-5.726c-0.42-2.249-2.88-3.916-5.41-3.441
			C78.12,5.961,76.429,8.403,76.849,10.652z"/>
		<path d="M98.596,0l4.229,0.374l2.572,9.127l4.33-8.517L114,1.362l1.036,16.743l-4.294-0.38l-0.365-9.616l-0.043-0.003
			l-4.807,9.159l-1.71-0.152l-2.949-9.844l-0.044-0.004l-2.222,9.388l-4.272-0.378L98.596,0z"/>
		<path d="M125.777,4.197l3.946,1.563l-0.137,9.479l6.577-6.927l3.987,1.579l-3.778,16.341l-4.008-1.588l2.393-9.319l-0.041-0.017
			l-7.217,7.407l-1.596-0.631l-0.021-10.275l-0.041-0.017l-4.805,8.364l-3.987-1.58L125.777,4.197z"/>
		<path d="M158.078,31.809c-3.262,4.267-8.621,4.935-12.852,1.7c-4.232-3.235-4.994-8.582-1.732-12.848
			c3.048-3.987,8.684-4.112,12.479-1.21C159.768,22.351,161.126,27.822,158.078,31.809z M147.049,23.406
			c-1.738,2.272-1.329,5.217,0.717,6.781s4.994,1.186,6.732-1.087c1.39-1.819,0.98-4.764-1.064-6.327
			C151.387,21.208,148.438,21.586,147.049,23.406z"/>
		<path d="M168.229,30.897l2.638,3.412l-3.195,12.455l0.027,0.034l8.026-6.204l2.638,3.413l-13.127,10.147l-2.639-3.413
			l3.213-12.468l-0.027-0.035l-8.043,6.217l-2.639-3.412L168.229,30.897z"/>
		<path d="M182.146,61.031c0.267-0.996,0.243-2.099-0.2-3.058c-0.331-0.72-1.193-1.484-2.031-1.097
			c-0.879,0.406-0.73,1.621-0.637,2.401l0.161,1.137c0.349,2.383,0.036,4.489-2.4,5.614c-1.498,0.691-3.202,1.041-4.773,0.312
			c-1.542-0.718-2.69-2.102-3.391-3.62c-0.876-1.897-1.094-4.05-0.725-6.085l3.931,0.222c-0.408,1.375-0.572,2.855,0.045,4.194
			c0.424,0.918,1.335,1.686,2.394,1.196c1.099-0.507,0.769-2.22,0.621-3.169c-0.435-2.779-0.542-4.692,2.374-6.038
			c3.057-1.41,6.059-0.154,7.449,2.861c0.701,1.519,1.079,3.597,0.938,5.285L182.146,61.031z"/>
	</g>
</g>
</svg>
